<?xml version="1.0" encoding="utf-8" standalone="no"?>
<!DOCTYPE svg PUBLIC "-//W3C//DTD SVG 1.1//EN"
  "http://www.w3.org/Graphics/SVG/1.1/DTD/svg11.dtd">
<!-- Created with matplotlib (https://matplotlib.org/) -->
<svg height="288pt" version="1.1" viewBox="0 0 432 288" width="432pt" xmlns="http://www.w3.org/2000/svg" xmlns:xlink="http://www.w3.org/1999/xlink">
 <metadata>
  <rdf:RDF xmlns:cc="http://creativecommons.org/ns#" xmlns:dc="http://purl.org/dc/elements/1.1/" xmlns:rdf="http://www.w3.org/1999/02/22-rdf-syntax-ns#">
   <cc:Work>
    <dc:type rdf:resource="http://purl.org/dc/dcmitype/StillImage"/>
    <dc:date>2022-03-05T17:53:33.676939</dc:date>
    <dc:format>image/svg+xml</dc:format>
    <dc:creator>
     <cc:Agent>
      <dc:title>Matplotlib v3.3.4, https://matplotlib.org/</dc:title>
     </cc:Agent>
    </dc:creator>
   </cc:Work>
  </rdf:RDF>
 </metadata>
 <defs>
  <style type="text/css">*{stroke-linecap:butt;stroke-linejoin:round;}</style>
 </defs>
 <g id="figure_1">
  <g id="patch_1">
   <path d="M 0 288 
L 432 288 
L 432 0 
L 0 0 
z
" style="fill:none;"/>
  </g>
  <g id="axes_1">
   <g id="patch_2">
    <path d="M 54 252 
L 388.8 252 
L 388.8 34.56 
L 54 34.56 
z
" style="fill:#ffffff;"/>
   </g>
   <g id="matplotlib.axis_1">
    <g id="xtick_1">
     <g id="line2d_1">
      <defs>
       <path d="M 0 0 
L 0 3.5 
" id="m675778df25" style="stroke:#000000;stroke-width:0.8;"/>
      </defs>
      <g>
       <use style="stroke:#000000;stroke-width:0.8;" x="221.781408" xlink:href="#m675778df25" y="252"/>
      </g>
     </g>
     <g id="text_1">
      <!-- $\bar\alpha$ -->
      <g transform="translate(214.335803 275.604405)scale(0.24 -0.24)">
       <defs>
        <path d="M 39.90625 55 
L 39.90625 57.28125 
L 5.90625 57.28125 
L 5.90625 55 
z
" id="CMR17-22"/>
        <path d="M 46.296875 25.25 
C 46.296875 34.921875 40.796875 43.984375 30.203125 43.984375 
C 17.09375 43.984375 4 29.71875 4 15.5625 
C 4 6.890625 9.40625 -1 19.59375 -1 
C 25.796875 -1 33.203125 1.390625 40.296875 7.375 
C 41.703125 1.796875 44.796875 -1 49.09375 -1 
C 54.5 -1 57.203125 4.59375 57.203125 5.890625 
C 57.203125 6.78125 56.5 6.78125 56.203125 6.78125 
C 55.40625 6.78125 55.296875 6.484375 55 5.6875 
C 54.09375 3.1875 51.796875 1 49.40625 1 
C 46.296875 1 46.296875 7.375 46.296875 13.46875 
C 56.5 25.640625 58.90625 38.21875 58.90625 38.3125 
C 58.90625 39.21875 58.09375 39.21875 57.796875 39.21875 
C 56.90625 39.21875 56.796875 38.921875 56.40625 37.125 
C 55.09375 32.734375 52.5 24.953125 46.296875 16.765625 
z
M 40 9.78125 
C 31.203125 1.890625 23.296875 1 19.796875 1 
C 12.703125 1 10.703125 7.28125 10.703125 11.96875 
C 10.703125 16.25 12.90625 26.4375 16 31.9375 
C 20.09375 38.921875 25.703125 42 30.203125 42 
C 39.90625 42 39.90625 29.328125 39.90625 20.953125 
C 39.90625 18.46875 39.796875 15.875 39.796875 13.375 
C 39.796875 11.375 39.90625 10.875 40 9.78125 
z
" id="CMMI12-11"/>
       </defs>
       <use transform="translate(11.204991 0.006461)scale(0.996264)" xlink:href="#CMR17-22"/>
       <use transform="scale(0.996264)" xlink:href="#CMMI12-11"/>
      </g>
     </g>
    </g>
   </g>
   <g id="matplotlib.axis_2"/>
   <g id="line2d_2">
    <path clip-path="url(#p959ed9f1d4)" d="M 69.218182 252 
L 127.955024 251.897499 
L 135.583185 251.666425 
L 140.922898 251.282073 
L 144.736979 250.795442 
L 147.788243 250.210184 
L 150.839508 249.38278 
L 153.127956 248.556072 
L 155.416405 247.508832 
L 157.704853 246.19562 
L 159.993301 244.565638 
L 162.28175 242.563239 
L 164.570198 240.12883 
L 166.09583 238.235225 
L 167.621463 236.10328 
L 169.909911 232.417961 
L 172.19836 228.094399 
L 174.486808 223.077704 
L 176.775256 217.321747 
L 179.063705 210.792809 
L 181.352153 203.473368 
L 183.640602 195.365815 
L 185.92905 186.495898 
L 188.980314 173.577351 
L 192.031579 159.601313 
L 196.608476 137.32377 
L 203.473821 103.792581 
L 206.525085 90.159259 
L 208.813534 80.923167 
L 211.101982 72.780239 
L 212.627614 68.05942 
L 214.153247 63.967885 
L 215.678879 60.552663 
L 217.204511 57.85355 
L 218.730144 55.902346 
L 219.49296 55.214802 
L 220.255776 54.722223 
L 221.018592 54.426084 
L 221.781408 54.327273 
L 222.544224 54.426084 
L 223.30704 54.722223 
L 224.069856 55.214802 
L 224.832673 55.902346 
L 225.595489 56.782803 
L 227.121121 59.11141 
L 228.646753 62.173068 
L 230.172386 65.931894 
L 231.698018 70.344367 
L 233.22365 75.360175 
L 235.512098 83.890968 
L 237.800547 93.443219 
L 240.851811 107.379543 
L 245.428708 129.744542 
L 251.531237 159.601313 
L 254.582502 173.577351 
L 257.633766 186.495898 
L 259.922215 195.365815 
L 262.210663 203.473368 
L 264.499111 210.792809 
L 266.78756 217.321747 
L 269.076008 223.077704 
L 271.364457 228.094399 
L 273.652905 232.417961 
L 275.941353 236.10328 
L 278.229802 239.21065 
L 280.51825 241.802804 
L 282.806699 243.942424 
L 285.095147 245.690145 
L 287.383595 247.103049 
L 289.672044 248.233626 
L 291.960492 249.129137 
L 295.011757 250.028859 
L 298.063021 250.668092 
L 301.877102 251.202192 
L 306.453999 251.582674 
L 312.556528 251.833688 
L 322.473137 251.967463 
L 349.171702 251.999826 
L 373.581818 252 
L 373.581818 252 
" style="fill:none;stroke:#1f77b4;stroke-linecap:square;stroke-width:3;"/>
   </g>
   <g id="patch_3">
    <path d="M 54 252 
L 54 34.56 
" style="fill:none;stroke:#000000;stroke-linecap:square;stroke-linejoin:miter;stroke-width:0.8;"/>
   </g>
   <g id="patch_4">
    <path d="M 388.8 252 
L 388.8 34.56 
" style="fill:none;stroke:#000000;stroke-linecap:square;stroke-linejoin:miter;stroke-width:0.8;"/>
   </g>
   <g id="patch_5">
    <path d="M 54 252 
L 388.8 252 
" style="fill:none;stroke:#000000;stroke-linecap:square;stroke-linejoin:miter;stroke-width:0.8;"/>
   </g>
   <g id="patch_6">
    <path d="M 54 34.56 
L 388.8 34.56 
" style="fill:none;stroke:#000000;stroke-linecap:square;stroke-linejoin:miter;stroke-width:0.8;"/>
   </g>
   <g id="text_2">
    <!-- $w(\alpha)$ vs $\alpha$ -->
    <g transform="translate(171.966213 28.56)scale(0.24 -0.24)">
     <defs>
      <path d="M 34.40625 6.09375 
C 36.59375 0.09375 42.796875 -1 46.59375 -1 
C 54.203125 -1 58.703125 5.59375 61.5 12.46875 
C 63.796875 18.265625 67.5 31.4375 67.5 37.328125 
C 67.5 43.40625 64.40625 44 63.5 44 
C 61.09375 44 58.90625 41.609375 58.90625 39.609375 
C 58.90625 38.421875 59.59375 37.71875 60.09375 37.328125 
C 61 36.421875 63.59375 33.734375 63.59375 28.546875 
C 63.59375 25.140625 60.796875 15.765625 58.703125 11.078125 
C 55.90625 4.984375 52.203125 1 47 1 
C 41.40625 1 39.59375 5.1875 39.59375 9.78125 
C 39.59375 12.671875 40.5 16.171875 40.90625 17.859375 
L 45.09375 34.625 
C 45.59375 36.625 46.5 40.109375 46.5 40.515625 
C 46.5 42.015625 45.296875 43.015625 43.796875 43.015625 
C 40.90625 43.015625 40.203125 40.515625 39.59375 38.125 
C 38.59375 34.234375 34.40625 17.359375 34 15.171875 
C 33.59375 13.46875 33.59375 12.375 33.59375 10.171875 
C 33.59375 7.78125 30.40625 3.984375 30.296875 3.796875 
C 29.203125 2.6875 27.59375 1 24.5 1 
C 16.59375 1 16.59375 8.484375 16.59375 10.171875 
C 16.59375 13.375 17.296875 17.765625 21.796875 29.640625 
C 23 32.734375 23.5 34.03125 23.5 36.015625 
C 23.5 40.21875 20.5 44 15.59375 44 
C 6.40625 44 2.703125 29.53125 2.703125 28.734375 
C 2.703125 28.34375 3.09375 27.84375 3.796875 27.84375 
C 4.703125 27.84375 4.796875 28.234375 5.203125 29.625 
C 7.703125 38.34375 11.59375 41.90625 15.296875 41.90625 
C 16.296875 41.90625 17.90625 41.90625 17.90625 38.71875 
C 17.90625 38.21875 17.90625 36.125 16.203125 31.734375 
C 11.5 19.265625 10.5 15.171875 10.5 11.375 
C 10.5 0.890625 19.09375 -1 24.203125 -1 
C 25.90625 -1 30.40625 -1 34.40625 6.09375 
z
" id="CMMI12-119"/>
      <path d="M 30.59375 -24.390625 
C 30.59375 -24.296875 30.59375 -24.09375 30.296875 -23.796875 
C 25.703125 -19.125 13.40625 -6.359375 13.40625 24.703125 
C 13.40625 55.765625 25.5 68.421875 30.40625 73.390625 
C 30.40625 73.5 30.59375 73.703125 30.59375 74 
C 30.59375 74.296875 30.296875 74.5 29.90625 74.5 
C 28.796875 74.5 20.296875 67.125 15.40625 56.15625 
C 10.40625 45.109375 9 34.359375 9 24.8125 
C 9 17.625 9.703125 5.484375 15.703125 -7.359375 
C 20.5 -17.734375 28.703125 -25 29.90625 -25 
C 30.40625 -25 30.59375 -24.796875 30.59375 -24.390625 
z
" id="CMR17-40"/>
      <path d="M 26.296875 24.703125 
C 26.296875 31.875 25.59375 44.015625 19.59375 56.859375 
C 14.796875 67.234375 6.59375 74.5 5.40625 74.5 
C 5.09375 74.5 4.703125 74.390625 4.703125 73.890625 
C 4.703125 73.703125 4.796875 73.59375 4.90625 73.390625 
C 9.703125 68.40625 21.90625 55.75 21.90625 24.75 
C 21.90625 -6.359375 9.796875 -19.015625 4.90625 -24.015625 
C 4.796875 -24.203125 4.703125 -24.3125 4.703125 -24.5 
C 4.703125 -25 5.09375 -25 5.40625 -25 
C 6.5 -25 15 -17.625 19.90625 -6.65625 
C 24.90625 4.390625 26.296875 15.140625 26.296875 24.703125 
z
" id="CMR17-41"/>
      <path d="M 39.09375 33.796875 
C 40 36 41.59375 40 47.40625 40 
L 47.40625 42.59375 
C 45.5 42.59375 43 42.59375 41.09375 42.59375 
C 39 42.59375 35.703125 42.59375 33.703125 42.6875 
L 33.703125 40.09375 
C 36.203125 39.890625 37.59375 38.703125 37.59375 36.109375 
C 37.59375 35.203125 37.59375 35 37 33.609375 
L 26 5.890625 
L 14.09375 35.71875 
C 13.5 37.015625 13.5 37.203125 13.5 37.609375 
C 13.5 40 16.796875 40 18.296875 40 
L 18.296875 42.6875 
C 15.90625 42.59375 11.5 42.59375 9 42.59375 
C 6.296875 42.59375 3.203125 42.59375 1 42.6875 
L 1 40 
C 4.796875 40 6.90625 40 8.09375 36.90625 
L 22.59375 0.6875 
C 23.203125 -0.796875 23.296875 -1 24.203125 -1 
C 25.09375 -1 25.203125 -0.796875 25.796875 0.6875 
z
" id="CMR17-118"/>
      <path d="M 30.90625 42.140625 
C 30.90625 43.953125 30.796875 44.046875 30.203125 44.046875 
C 29.796875 44.046875 29.703125 43.953125 28.5 42.453125 
C 28.203125 42.046875 27.296875 41.03125 27 40.640625 
C 23.796875 44.046875 19.296875 44.046875 17.59375 44.046875 
C 6.5 44.046875 2.5 38.234375 2.5 32.4375 
C 2.5 23.40625 12.703125 21.328125 15.59375 20.703125 
C 21.90625 19.421875 24.09375 19.015625 26.203125 17.203125 
C 27.5 16.015625 29.703125 13.8125 29.703125 10.21875 
C 29.703125 6 27.296875 0.59375 18.09375 0.59375 
C 9.40625 0.59375 6.296875 7.1875 4.5 15.953125 
C 4.203125 17.34375 4.203125 17.453125 3.40625 17.453125 
C 2.59375 17.453125 2.5 17.34375 2.5 15.359375 
L 2.5 0.984375 
C 2.5 -0.796875 2.59375 -0.90625 3.203125 -0.90625 
C 3.703125 -0.90625 3.796875 -0.796875 4.296875 0 
C 4.90625 0.890625 6.40625 3.296875 7 4.3125 
C 9 1.609375 12.5 -1 18.09375 -1 
C 28 -1 33.296875 4.421875 33.296875 12.25 
C 33.296875 17.375 30.59375 20.078125 29.296875 21.28125 
C 26.296875 24.390625 22.796875 25.09375 18.59375 25.890625 
C 13.09375 27.109375 6.09375 28.515625 6.09375 34.640625 
C 6.09375 37.234375 7.5 42.765625 17.59375 42.765625 
C 28.296875 42.765625 28.90625 32.71875 29.09375 29.5 
C 29.203125 29 29.703125 28.890625 30 28.890625 
C 30.90625 28.890625 30.90625 29.203125 30.90625 30.90625 
z
" id="CMR17-115"/>
     </defs>
     <use transform="scale(0.996264)" xlink:href="#CMMI12-119"/>
     <use transform="translate(72.412915 0)scale(0.996264)" xlink:href="#CMR17-40"/>
     <use transform="translate(107.693683 0)scale(0.996264)" xlink:href="#CMMI12-11"/>
     <use transform="translate(170.374706 0)scale(0.996264)" xlink:href="#CMR17-41"/>
     <use transform="translate(235.73144 0)scale(0.996264)" xlink:href="#CMR17-118"/>
     <use transform="translate(284.024356 0)scale(0.996264)" xlink:href="#CMR17-115"/>
     <use transform="translate(349.90166 0)scale(0.996264)" xlink:href="#CMMI12-11"/>
    </g>
   </g>
  </g>
 </g>
 <defs>
  <clipPath id="p959ed9f1d4">
   <rect height="217.44" width="334.8" x="54" y="34.56"/>
  </clipPath>
 </defs>
</svg>
