<?xml version="1.0" encoding="utf-8" standalone="no"?>
<!DOCTYPE svg PUBLIC "-//W3C//DTD SVG 1.1//EN"
  "http://www.w3.org/Graphics/SVG/1.1/DTD/svg11.dtd">
<!-- Created with matplotlib (http://matplotlib.org/) -->
<svg height="288pt" version="1.1" viewBox="0 0 432 288" width="432pt" xmlns="http://www.w3.org/2000/svg" xmlns:xlink="http://www.w3.org/1999/xlink">
 <defs>
  <style type="text/css">
*{stroke-linecap:butt;stroke-linejoin:round;}
  </style>
 </defs>
 <g id="figure_1">
  <g id="patch_1">
   <path d="M 0 288 
L 432 288 
L 432 0 
L 0 0 
z
" style="fill:#ffffff;"/>
  </g>
  <g id="axes_1">
   <g id="patch_2">
    <path d="M 54 252 
L 388.8 252 
L 388.8 34.56 
L 54 34.56 
z
" style="fill:#ffffff;"/>
   </g>
   <g id="matplotlib.axis_1"/>
   <g id="matplotlib.axis_2">
    <g id="ytick_1">
     <g id="line2d_1">
      <defs>
       <path d="M 0 0 
L -3.5 0 
" id="m7def0922ce" style="stroke:#000000;stroke-width:0.8;"/>
      </defs>
      <g>
       <use style="stroke:#000000;stroke-width:0.8;" x="54" xlink:href="#m7def0922ce" y="189.874286"/>
      </g>
     </g>
     <g id="text_1">
      <!-- $\bar{a}_i$ -->
      <defs>
       <path d="M 39.90625 55 
L 39.90625 57.296875 
L 5.90625 57.296875 
L 5.90625 55 
z
" id="CMR17-22"/>
       <path d="M 30.09375 11.859375 
C 29.59375 10.171875 29.59375 9.96875 28.203125 8.078125 
C 26 5.28125 21.59375 1 16.90625 1 
C 12.796875 1 10.5 4.6875 10.5 10.5625 
C 10.5 16.0625 13.59375 27.234375 15.5 31.421875 
C 18.90625 38.40625 23.59375 41.984375 27.5 41.984375 
C 34.09375 41.984375 35.40625 33.8125 35.40625 33.015625 
C 35.40625 32.921875 35.09375 31.625 35 31.421875 
z
M 36.5 37.40625 
C 35.40625 40 32.703125 44 27.5 44 
C 16.203125 44 4 29.421875 4 14.65625 
C 4 4.78125 9.796875 -1 16.59375 -1 
C 22.09375 -1 26.796875 3.28125 29.59375 6.578125 
C 30.59375 0.6875 35.296875 -1 38.296875 -1 
C 41.296875 -1 43.703125 0.796875 45.5 4.375 
C 47.09375 7.75 48.5 13.828125 48.5 14.21875 
C 48.5 14.71875 48.09375 15.125 47.5 15.125 
C 46.59375 15.125 46.5 14.625 46.09375 13.125 
C 44.59375 7.265625 42.703125 1 38.59375 1 
C 35.703125 1 35.5 3.578125 35.5 5.5625 
C 35.5 7.859375 35.796875 8.953125 36.703125 12.828125 
C 37.40625 15.3125 37.90625 17.5 38.703125 20.390625 
C 42.40625 35.3125 43.296875 38.890625 43.296875 39.5 
C 43.296875 40.890625 42.203125 42 40.703125 42 
C 37.5 42 36.703125 38.5 36.5 37.3125 
z
" id="CMMI12-97"/>
       <path d="M 28.296875 14.265625 
C 28.296875 14.765625 27.90625 15.15625 27.296875 15.15625 
C 26.40625 15.15625 26.296875 14.859375 25.796875 13.15625 
C 23.203125 4.078125 19.09375 1 15.796875 1 
C 14.59375 1 13.203125 1.296875 13.203125 4.28125 
C 13.203125 6.984375 14.40625 9.96875 15.5 12.96875 
L 22.5 31.515625 
C 22.796875 32.3125 23.5 34.109375 23.5 36.015625 
C 23.5 40.203125 20.5 44 15.59375 44 
C 6.40625 44 2.703125 29.53125 2.703125 28.71875 
C 2.703125 28.328125 3.09375 27.828125 3.796875 27.828125 
C 4.703125 27.828125 4.796875 28.234375 5.203125 29.625 
C 7.59375 38 11.40625 41.984375 15.296875 41.984375 
C 16.203125 41.984375 17.90625 41.890625 17.90625 38.703125 
C 17.90625 36.109375 16.59375 32.8125 15.796875 30.625 
L 8.796875 12.0625 
C 8.203125 10.46875 7.59375 8.875 7.59375 7.078125 
C 7.59375 2.59375 10.703125 -1 15.5 -1 
C 24.703125 -1 28.296875 13.5625 28.296875 14.265625 
z
M 27.5 62.6875 
C 27.5 64.1875 26.296875 66 24.09375 66 
C 21.796875 66 19.203125 63.796875 19.203125 61.1875 
C 19.203125 58.6875 21.296875 57.890625 22.5 57.890625 
C 25.203125 57.890625 27.5 60.484375 27.5 62.6875 
z
" id="CMMI12-105"/>
      </defs>
      <g transform="translate(32.099456 196.792784)scale(0.2 -0.2)">
       <use transform="translate(2.758698 14.950375)scale(0.996264)" xlink:href="#CMR17-22"/>
       <use transform="translate(0 14.943915)scale(0.996264)" xlink:href="#CMMI12-97"/>
       <use transform="translate(51.207858 0)scale(0.697382)" xlink:href="#CMMI12-105"/>
      </g>
     </g>
    </g>
   </g>
   <g id="line2d_2">
    <path clip-path="url(#p5264c479ec)" d="M 69.218182 63.239286 
L 72.292562 64.983151 
L 75.366942 46.383003 
L 78.441322 70.181212 
L 81.515702 74.108736 
L 84.590083 78.23083 
L 87.664463 62.164669 
L 90.738843 71.555298 
L 93.813223 62.51866 
L 96.887603 78.067249 
L 99.961983 73.189408 
L 103.036364 71.540175 
L 106.110744 78.099727 
L 109.185124 73.993227 
L 112.259504 74.96541 
L 115.333884 60.131299 
L 118.408264 79.111013 
L 121.482645 73.962374 
L 124.557025 95.239282 
L 127.631405 64.981682 
L 130.705785 74.21059 
L 133.780165 85.39694 
L 136.854545 85.979576 
L 139.928926 65.388955 
L 143.003306 84.472767 
L 146.077686 104.011382 
L 149.152066 84.421099 
L 152.226446 76.871327 
L 155.300826 102.591885 
L 158.375207 93.593391 
L 161.449587 97.473809 
L 164.523967 95.210035 
L 167.598347 96.739968 
L 170.672727 102.28397 
L 173.747107 102.350299 
L 176.821488 109.180756 
L 179.895868 116.108009 
L 182.970248 120.637664 
L 186.044628 95.983251 
L 189.119008 116.973993 
L 192.193388 106.426229 
L 195.267769 112.577355 
L 198.342149 126.757403 
L 201.416529 119.295457 
L 204.490909 114.085365 
L 207.565289 125.600956 
L 210.639669 126.653608 
L 213.71405 129.186013 
L 216.78843 121.105061 
L 219.86281 126.535991 
L 222.93719 134.938945 
L 226.01157 136.551197 
L 229.08595 151.890734 
L 232.160331 147.31207 
L 235.234711 156.842564 
L 238.309091 139.952815 
L 241.383471 135.261474 
L 244.457851 166.067309 
L 247.532231 156.670796 
L 250.606612 138.430939 
L 253.680992 167.048312 
L 256.755372 187.928681 
L 259.829752 158.438739 
L 262.904132 174.279187 
L 265.978512 164.950359 
L 269.052893 160.92203 
L 272.127273 165.020076 
L 275.201653 160.74553 
L 278.276033 162.796937 
L 281.350413 164.575105 
L 284.424793 176.849211 
L 287.499174 162.133696 
L 290.573554 152.669241 
L 293.647934 180.500028 
L 296.722314 171.037786 
L 299.796694 194.076128 
L 302.871074 199.884949 
L 305.945455 189.767912 
L 309.019835 185.253081 
L 312.094215 187.765014 
L 315.168595 180.155506 
L 318.242975 177.36941 
L 321.317355 193.065426 
L 324.391736 172.968642 
L 327.466116 176.201878 
L 330.540496 187.180972 
L 333.614876 187.539749 
L 336.689256 179.621577 
L 339.763636 191.5033 
L 342.838017 176.782914 
L 345.912397 176.893392 
L 348.986777 197.482338 
L 352.061157 189.944641 
L 355.135537 196.568566 
L 358.209917 183.645502 
L 361.284298 191.189015 
L 364.358678 195.713796 
L 367.433058 201.628889 
L 370.507438 194.516343 
L 373.581818 198.096533 
" style="fill:none;stroke:#0000ff;stroke-linecap:square;stroke-width:3;"/>
   </g>
   <g id="line2d_3">
    <path clip-path="url(#p5264c479ec)" d="M 69.218182 65.622857 
L 72.292562 65.659491 
L 75.366942 65.769351 
L 78.441322 65.952305 
L 81.515702 66.20814 
L 84.590083 66.536553 
L 87.664463 66.937156 
L 90.738843 67.409477 
L 93.813223 67.95296 
L 96.887603 68.566964 
L 99.961983 69.250763 
L 103.036364 70.003552 
L 106.110744 70.824443 
L 109.185124 71.712468 
L 112.259504 72.666579 
L 115.333884 73.685651 
L 118.408264 74.768483 
L 121.482645 75.913797 
L 124.557025 77.120243 
L 127.631405 78.386398 
L 130.705785 79.710768 
L 133.780165 81.091792 
L 136.854545 82.527841 
L 139.928926 84.017221 
L 143.003306 85.558176 
L 146.077686 87.148888 
L 149.152066 88.787482 
L 152.226446 90.472025 
L 155.300826 92.20053 
L 158.375207 93.970959 
L 161.449587 95.781224 
L 164.523967 97.62919 
L 167.598347 99.512677 
L 170.672727 101.429464 
L 173.747107 103.377291 
L 176.821488 105.35386 
L 179.895868 107.35684 
L 182.970248 109.38387 
L 186.044628 111.432558 
L 189.119008 113.500489 
L 192.193388 115.585223 
L 195.267769 117.684302 
L 198.342149 119.79525 
L 201.416529 121.915579 
L 204.490909 124.042786 
L 207.565289 126.174364 
L 210.639669 128.307798 
L 213.71405 130.440573 
L 216.78843 132.570173 
L 219.86281 134.694086 
L 222.93719 136.809809 
L 226.01157 138.914845 
L 229.08595 141.006712 
L 232.160331 143.082942 
L 235.234711 145.141089 
L 238.309091 147.178723 
L 241.383471 149.193442 
L 244.457851 151.18287 
L 247.532231 153.144661 
L 250.606612 155.0765 
L 253.680992 156.976111 
L 256.755372 158.841251 
L 259.829752 160.669723 
L 262.904132 162.459368 
L 265.978512 164.208078 
L 269.052893 165.913788 
L 272.127273 167.574488 
L 275.201653 169.188219 
L 278.276033 170.753079 
L 281.350413 172.26722 
L 284.424793 173.728858 
L 287.499174 175.136269 
L 290.573554 176.487794 
L 293.647934 177.781837 
L 296.722314 179.016873 
L 299.796694 180.191446 
L 302.871074 181.30417 
L 305.945455 182.353733 
L 309.019835 183.338897 
L 312.094215 184.2585 
L 315.168595 185.111458 
L 318.242975 185.896764 
L 321.317355 186.613494 
L 324.391736 187.2608 
L 327.466116 187.837921 
L 330.540496 188.344174 
L 333.614876 188.778965 
L 336.689256 189.141778 
L 339.763636 189.432187 
L 342.838017 189.649849 
L 345.912397 189.794508 
L 348.986777 189.865992 
L 352.061157 189.864218 
L 355.135537 189.789187 
L 358.209917 189.640989 
L 361.284298 189.419797 
L 364.358678 189.125873 
L 367.433058 188.759563 
L 370.507438 188.3213 
L 373.581818 187.8116 
" style="fill:none;stroke:#ff0000;stroke-linecap:square;stroke-width:3;"/>
   </g>
   <g id="line2d_4">
    <path clip-path="url(#p5264c479ec)" d="M 54 189.874286 
L 388.8 189.874286 
" style="fill:none;stroke:#000000;stroke-dasharray:5.55,2.4;stroke-dashoffset:0;stroke-width:1.5;"/>
   </g>
   <g id="patch_3">
    <path d="M 54 252 
L 54 34.56 
" style="fill:none;stroke:#000000;stroke-linecap:square;stroke-linejoin:miter;stroke-width:0.8;"/>
   </g>
   <g id="patch_4">
    <path d="M 388.8 252 
L 388.8 34.56 
" style="fill:none;stroke:#000000;stroke-linecap:square;stroke-linejoin:miter;stroke-width:0.8;"/>
   </g>
   <g id="patch_5">
    <path d="M 54 252 
L 388.8 252 
" style="fill:none;stroke:#000000;stroke-linecap:square;stroke-linejoin:miter;stroke-width:0.8;"/>
   </g>
   <g id="patch_6">
    <path d="M 54 34.56 
L 388.8 34.56 
" style="fill:none;stroke:#000000;stroke-linecap:square;stroke-linejoin:miter;stroke-width:0.8;"/>
   </g>
   <g id="text_2">
    <!-- $\alpha_i(t)$ ja $a_i(t)=\langle\alpha_i(t) \rangle$ -->
    <defs>
     <path d="M 46.296875 25.234375 
C 46.296875 34.90625 40.796875 44 30.203125 44 
C 17.09375 44 4 29.71875 4 15.5625 
C 4 6.875 9.40625 -1 19.59375 -1 
C 25.796875 -1 33.203125 1.390625 40.296875 7.375 
C 41.703125 1.796875 44.796875 -1 49.09375 -1 
C 54.5 -1 57.203125 4.578125 57.203125 5.875 
C 57.203125 6.78125 56.5 6.78125 56.203125 6.78125 
C 55.40625 6.78125 55.296875 6.484375 55 5.6875 
C 54.09375 3.1875 51.796875 1 49.40625 1 
C 46.296875 1 46.296875 7.375 46.296875 13.46875 
C 56.5 25.640625 58.90625 38.203125 58.90625 38.296875 
C 58.90625 39.203125 58.09375 39.203125 57.796875 39.203125 
C 56.90625 39.203125 56.796875 38.90625 56.40625 37.109375 
C 55.09375 32.71875 52.5 24.9375 46.296875 16.75 
z
M 40 9.765625 
C 31.203125 1.890625 23.296875 1 19.796875 1 
C 12.703125 1 10.703125 7.28125 10.703125 11.96875 
C 10.703125 16.25 12.90625 26.4375 16 31.921875 
C 20.09375 38.90625 25.703125 41.984375 30.203125 41.984375 
C 39.90625 41.984375 39.90625 29.328125 39.90625 20.9375 
C 39.90625 18.453125 39.796875 15.859375 39.796875 13.359375 
C 39.796875 11.375 39.90625 10.875 40 9.765625 
z
" id="CMMI12-11"/>
     <path d="M 30.59375 -24.40625 
C 30.59375 -24.3125 30.59375 -24.109375 30.296875 -23.8125 
C 25.703125 -19.109375 13.40625 -6.296875 13.40625 24.9375 
C 13.40625 56.171875 25.5 68.875 30.40625 73.890625 
C 30.40625 73.984375 30.59375 74.1875 30.59375 74.484375 
C 30.59375 74.796875 30.296875 75 29.90625 75 
C 28.796875 75 20.296875 67.578125 15.40625 56.5625 
C 10.40625 45.453125 9 34.65625 9 25.046875 
C 9 17.828125 9.703125 5.625 15.703125 -7.296875 
C 20.5 -17.703125 28.703125 -25 29.90625 -25 
C 30.40625 -25 30.59375 -24.8125 30.59375 -24.40625 
z
" id="CMR17-40"/>
     <path d="M 20.09375 40.09375 
L 29.296875 40.09375 
C 31.203125 40.09375 32.203125 40.09375 32.203125 41.890625 
C 32.203125 43 31.59375 43 29.59375 43 
L 20.796875 43 
L 24.5 57.25 
C 24.90625 58.625 24.90625 58.8125 24.90625 59.5 
C 24.90625 61.09375 23.59375 62 22.296875 62 
C 21.5 62 19.203125 61.6875 18.40625 58.53125 
L 14.5 43 
L 5.09375 43 
C 3.09375 43 2.203125 43 2.203125 41.09375 
C 2.203125 40.09375 2.90625 40.09375 4.796875 40.09375 
L 13.703125 40.09375 
L 7.09375 13.765625 
C 6.296875 10.265625 6 9.265625 6 7.96875 
C 6 3.28125 9.296875 -1 14.90625 -1 
C 25 -1 30.40625 13.5625 30.40625 14.265625 
C 30.40625 14.859375 30 15.15625 29.40625 15.15625 
C 29.203125 15.15625 28.796875 15.15625 28.59375 14.75 
C 28.5 14.65625 28.40625 14.5625 27.703125 12.96875 
C 25.59375 7.96875 21 1 15.203125 1 
C 12.203125 1 12 3.484375 12 5.6875 
C 12 5.78125 12 7.671875 12.296875 8.875 
z
" id="CMMI12-116"/>
     <path d="M 26.296875 24.9375 
C 26.296875 32.140625 25.59375 44.359375 19.59375 57.265625 
C 14.796875 67.6875 6.59375 75 5.40625 75 
C 5.09375 75 4.703125 74.890625 4.703125 74.390625 
C 4.703125 74.1875 4.796875 74.09375 4.90625 73.890625 
C 9.703125 68.875 21.90625 56.171875 21.90625 25.046875 
C 21.90625 -6.1875 9.796875 -18.90625 4.90625 -23.90625 
C 4.796875 -24.109375 4.703125 -24.203125 4.703125 -24.40625 
C 4.703125 -24.90625 5.09375 -25 5.40625 -25 
C 6.5 -25 15 -17.609375 19.90625 -6.59375 
C 24.90625 4.515625 26.296875 15.328125 26.296875 24.9375 
z
" id="CMR17-41"/>
     <path d="M 18.203125 61.890625 
C 18.203125 64.09375 16.40625 66 14.09375 66 
C 11.90625 66 10 64.1875 10 61.890625 
C 10 59.6875 11.796875 57.796875 14.09375 57.796875 
C 16.296875 57.796875 18.203125 59.59375 18.203125 61.890625 
z
M 5.703125 42.890625 
L 5.703125 40.296875 
C 12.296875 40.296875 13.09375 39.578125 13.09375 34.703125 
L 13.09375 -6.40625 
C 13.09375 -11.484375 12.203125 -19.40625 6.296875 -19.40625 
C 5.59375 -19.40625 2.90625 -19.3125 0.703125 -17.890625 
C 1.40625 -17.78125 3.90625 -17.078125 3.90625 -14.234375 
C 3.90625 -12.296875 2.59375 -10.578125 0.296875 -10.578125 
C -1.90625 -10.578125 -3.296875 -12.09375 -3.296875 -14.328125 
C -3.296875 -18.390625 1.09375 -21 6.203125 -21 
C 13.09375 -21 18.203125 -14.640625 18.203125 -6 
L 18.203125 44 
z
" id="CMR17-106"/>
     <path d="M 36 25.875 
C 36 32 36 35.546875 31.796875 39.59375 
C 28.09375 42.984375 23.796875 44 20.40625 44 
C 12.5 44 6.796875 37.625 6.796875 30.890625 
C 6.796875 27.1875 9.796875 27 10.40625 27 
C 11.703125 27 14 27.796875 14 30.59375 
C 14 33.09375 12.09375 34.1875 10.40625 34.1875 
C 10 34.1875 9.5 34.09375 9.203125 34 
C 11.296875 40.53125 16.703125 42.390625 20.203125 42.390625 
C 25.203125 42.390625 30.703125 37.828125 30.703125 29.296875 
L 30.703125 25.5 
C 24.796875 25.296875 17.703125 24.5 12.09375 21.453125 
C 5.796875 17.921875 4 12.84375 4 9 
C 4 1.203125 13 -1 18.296875 -1 
C 23.796875 -1 28.90625 2.109375 31.09375 7.890625 
C 31.296875 3.421875 34.09375 -0.609375 38.5 -0.609375 
C 40.59375 -0.609375 45.90625 0.796875 45.90625 8.796875 
L 45.90625 14.46875 
L 44.09375 14.46875 
L 44.09375 8.703125 
C 44.09375 2.515625 41.40625 1.703125 40.09375 1.703125 
C 36 1.703125 36 6.96875 36 11.4375 
z
M 30.703125 13.859375 
C 30.703125 5.046875 24.5 0.59375 19 0.59375 
C 14 0.59375 10.09375 4.34375 10.09375 9 
C 10.09375 12.046875 11.40625 17.40625 17.203125 20.65625 
C 22 23.390625 27.5 23.796875 30.703125 24 
z
" id="CMR17-97"/>
     <path d="M 64.296875 32 
C 65.796875 32 67.296875 32 67.296875 33.6875 
C 67.296875 35.5 65.59375 35.5 63.90625 35.5 
L 8 35.5 
C 6.296875 35.5 4.59375 35.5 4.59375 33.6875 
C 4.59375 32 6.09375 32 7.59375 32 
z
M 63.90625 14.484375 
C 65.59375 14.484375 67.296875 14.484375 67.296875 16.296875 
C 67.296875 18 65.796875 18 64.296875 18 
L 7.59375 18 
C 6.09375 18 4.59375 18 4.59375 16.296875 
C 4.59375 14.484375 6.296875 14.484375 8 14.484375 
z
" id="CMR17-61"/>
     <path d="M 32.796875 71.203125 
C 33.296875 72.296875 33.296875 72.5 33.296875 73 
C 33.296875 74.09375 32.40625 75 31.296875 75 
C 30.40625 75 29.703125 74.5 29 72.703125 
L 11.5 26.796875 
C 11.296875 26.203125 11 25.59375 11 25 
C 11 24.6875 11 24.5 11.5 23.296875 
L 29 -22.609375 
C 29.40625 -23.703125 29.90625 -25 31.296875 -25 
C 32.40625 -25 33.296875 -24.109375 33.296875 -23 
C 33.296875 -22.703125 33.296875 -22.5 32.796875 -21.40625 
L 15.09375 25 
z
" id="CMSY10-104"/>
     <path d="M 27.296875 23.296875 
C 27.796875 24.5 27.796875 24.6875 27.796875 25 
C 27.796875 25.296875 27.796875 25.5 27.296875 26.703125 
L 9.796875 72.703125 
C 9.203125 74.390625 8.59375 75 7.5 75 
C 6.40625 75 5.5 74.09375 5.5 73 
C 5.5 72.703125 5.5 72.5 6 71.390625 
L 23.703125 25 
L 6 -21.203125 
C 5.5 -22.3125 5.5 -22.5 5.5 -23 
C 5.5 -24.109375 6.40625 -25 7.5 -25 
C 8.796875 -25 9.203125 -24 9.59375 -23 
z
" id="CMSY10-105"/>
    </defs>
    <g transform="translate(112.602972 28.56)scale(0.24 -0.24)">
     <use transform="translate(0 14.943915)scale(0.996264)" xlink:href="#CMMI12-11"/>
     <use transform="translate(62.046728 0)scale(0.697382)" xlink:href="#CMMI12-105"/>
     <use transform="translate(85.839768 14.943915)scale(0.996264)" xlink:href="#CMR17-40"/>
     <use transform="translate(121.120536 14.943915)scale(0.996264)" xlink:href="#CMMI12-116"/>
     <use transform="translate(156.346866 14.943915)scale(0.996264)" xlink:href="#CMR17-41"/>
     <use transform="translate(221.7036 14.943915)scale(0.996264)" xlink:href="#CMR17-106"/>
     <use transform="translate(249.177112 14.943915)scale(0.996264)" xlink:href="#CMR17-97"/>
     <use transform="translate(324.943556 14.943915)scale(0.996264)" xlink:href="#CMMI12-97"/>
     <use transform="translate(376.151413 0)scale(0.697382)" xlink:href="#CMMI12-105"/>
     <use transform="translate(399.944453 14.943915)scale(0.996264)" xlink:href="#CMR17-40"/>
     <use transform="translate(435.22522 14.943915)scale(0.996264)" xlink:href="#CMMI12-116"/>
     <use transform="translate(470.451551 14.943915)scale(0.996264)" xlink:href="#CMR17-41"/>
     <use transform="translate(533.406327 14.943915)scale(0.996264)" xlink:href="#CMR17-61"/>
     <use transform="translate(632.795124 14.943915)scale(0.996264)" xlink:href="#CMSY10-104"/>
     <use transform="translate(671.538858 14.943915)scale(0.996264)" xlink:href="#CMMI12-11"/>
     <use transform="translate(733.585587 0)scale(0.697382)" xlink:href="#CMMI12-105"/>
     <use transform="translate(757.378626 14.943915)scale(0.996264)" xlink:href="#CMR17-40"/>
     <use transform="translate(792.659394 14.943915)scale(0.996264)" xlink:href="#CMMI12-116"/>
     <use transform="translate(827.885724 14.943915)scale(0.996264)" xlink:href="#CMR17-41"/>
     <use transform="translate(863.166492 14.943915)scale(0.996264)" xlink:href="#CMSY10-105"/>
    </g>
   </g>
   <g id="legend_1">
    <g id="patch_7">
     <path d="M 293.731682 106.311267 
L 374.8 106.311267 
Q 378.8 106.311267 378.8 102.311267 
L 378.8 48.56 
Q 378.8 44.56 374.8 44.56 
L 293.731682 44.56 
Q 289.731682 44.56 289.731682 48.56 
L 289.731682 102.311267 
Q 289.731682 106.311267 293.731682 106.311267 
z
" style="fill:#ffffff;opacity:0.8;stroke:#cccccc;stroke-linejoin:miter;"/>
    </g>
    <g id="line2d_5">
     <path d="M 297.731682 59.56 
L 337.731682 59.56 
" style="fill:none;stroke:#0000ff;stroke-linecap:square;stroke-width:3;"/>
    </g>
    <g id="line2d_6"/>
    <g id="text_3">
     <!-- $\alpha_i$ -->
     <g transform="translate(353.731682 66.56)scale(0.2 -0.2)">
      <use transform="translate(0 14.943915)scale(0.996264)" xlink:href="#CMMI12-11"/>
      <use transform="translate(62.046728 0)scale(0.697382)" xlink:href="#CMMI12-105"/>
     </g>
    </g>
    <g id="line2d_7">
     <path d="M 297.731682 87.435634 
L 337.731682 87.435634 
" style="fill:none;stroke:#ff0000;stroke-linecap:square;stroke-width:3;"/>
    </g>
    <g id="line2d_8"/>
    <g id="text_4">
     <!-- $a_i$ -->
     <g transform="translate(353.731682 94.435634)scale(0.2 -0.2)">
      <use transform="translate(0 14.943915)scale(0.996264)" xlink:href="#CMMI12-97"/>
      <use transform="translate(51.207858 0)scale(0.697382)" xlink:href="#CMMI12-105"/>
     </g>
    </g>
   </g>
  </g>
 </g>
 <defs>
  <clipPath id="p5264c479ec">
   <rect height="217.44" width="334.8" x="54" y="34.56"/>
  </clipPath>
 </defs>
</svg>
