<?xml version="1.0" encoding="utf-8" standalone="no"?>
<!DOCTYPE svg PUBLIC "-//W3C//DTD SVG 1.1//EN"
  "http://www.w3.org/Graphics/SVG/1.1/DTD/svg11.dtd">
<!-- Created with matplotlib (http://matplotlib.org/) -->
<svg height="288pt" version="1.1" viewBox="0 0 864 288" width="864pt" xmlns="http://www.w3.org/2000/svg" xmlns:xlink="http://www.w3.org/1999/xlink">
 <defs>
  <style type="text/css">
*{stroke-linecap:butt;stroke-linejoin:round;}
  </style>
 </defs>
 <g id="figure_1">
  <g id="patch_1">
   <path d="M 0 288 
L 864 288 
L 864 0 
L 0 0 
z
" style="fill:#ffffff;"/>
  </g>
  <g id="axes_1">
   <g id="patch_2">
    <path d="M 108 252 
L 412.363636 252 
L 412.363636 34.56 
L 108 34.56 
z
" style="fill:#ffffff;"/>
   </g>
   <g id="PathCollection_1">
    <defs>
     <path d="M 0 3 
C 0.795609 3 1.55874 2.683901 2.12132 2.12132 
C 2.683901 1.55874 3 0.795609 3 0 
C 3 -0.795609 2.683901 -1.55874 2.12132 -2.12132 
C 1.55874 -2.683901 0.795609 -3 0 -3 
C -0.795609 -3 -1.55874 -2.683901 -2.12132 -2.12132 
C -2.683901 -1.55874 -3 -0.795609 -3 0 
C -3 0.795609 -2.683901 1.55874 -2.12132 2.12132 
C -1.55874 2.683901 -0.795609 3 0 3 
z
" id="m0dad1e8ea2" style="stroke:#0000ff;stroke-width:3;"/>
    </defs>
    <g clip-path="url(#p3ada097c15)">
     <use style="fill:#0000ff;stroke:#0000ff;stroke-width:3;" x="168.872727" xlink:href="#m0dad1e8ea2" y="143.28"/>
    </g>
   </g>
   <g id="matplotlib.axis_1">
    <g id="text_1">
     <!-- $\{q\}$ -->
     <defs>
      <path d="M 28.296875 61.671875 
C 28.296875 65.671875 30.90625 72.09375 41.796875 72.796875 
C 42.296875 72.890625 42.703125 73.296875 42.703125 73.890625 
C 42.703125 75 41.90625 75 40.796875 75 
C 30.796875 75 21.703125 69.890625 21.59375 62.46875 
L 21.59375 39.625 
C 21.59375 35.71875 21.59375 32.5 17.59375 29.203125 
C 14.09375 26.296875 10.296875 26.09375 8.09375 26 
C 7.59375 25.890625 7.203125 25.484375 7.203125 24.890625 
C 7.203125 23.890625 7.796875 23.890625 8.796875 23.796875 
C 15.40625 23.390625 20.203125 19.796875 21.296875 14.90625 
C 21.59375 13.8125 21.59375 13.609375 21.59375 10.015625 
L 21.59375 -9.734375 
C 21.59375 -13.921875 21.59375 -17.125 26.40625 -20.90625 
C 30.296875 -23.90625 36.90625 -25 40.796875 -25 
C 41.90625 -25 42.703125 -25 42.703125 -23.90625 
C 42.703125 -22.90625 42.09375 -22.90625 41.09375 -22.8125 
C 34.796875 -22.40625 29.90625 -19.21875 28.59375 -14.125 
C 28.296875 -13.234375 28.296875 -13.03125 28.296875 -9.4375 
L 28.296875 11.515625 
C 28.296875 16.109375 27.5 17.796875 24.296875 21 
C 22.203125 23.09375 19.296875 24.09375 16.5 24.890625 
C 24.703125 27.1875 28.296875 31.8125 28.296875 37.625 
z
" id="CMSY10-102"/>
      <path d="M 44.09375 42.984375 
C 44.09375 43.484375 43.703125 43.890625 43.203125 43.890625 
C 42.40625 43.890625 38.5 40.296875 36.59375 36.8125 
C 34.796875 41.296875 31.703125 44 27.40625 44 
C 16.09375 44 3.90625 29.421875 3.90625 14.65625 
C 3.90625 4.78125 9.703125 -1 16.5 -1 
C 21.796875 -1 26.203125 2.984375 28.296875 5.28125 
L 28.40625 5.1875 
L 24.59375 -9.578125 
L 23.703125 -13.09375 
C 22.796875 -16.015625 21.296875 -16.015625 16.59375 -16.109375 
C 15.5 -16.109375 14.5 -16.109375 14.5 -18 
C 14.5 -18.703125 15.09375 -19 15.796875 -19 
C 17.203125 -19 19 -18.8125 20.40625 -18.8125 
L 30.59375 -18.8125 
C 32.09375 -18.8125 33.796875 -19 35.296875 -19 
C 35.90625 -19 37.09375 -19 37.09375 -17.109375 
C 37.09375 -16.109375 36.296875 -16.109375 34.796875 -16.109375 
C 30.09375 -16.109375 29.796875 -15.421875 29.796875 -14.640625 
C 29.796875 -14.15625 29.90625 -14.0625 30.203125 -12.796875 
z
M 30 11.859375 
C 29.5 10.171875 29.5 9.96875 28.09375 8.078125 
C 25.90625 5.28125 21.5 1 16.796875 1 
C 12.703125 1 10.40625 4.6875 10.40625 10.5625 
C 10.40625 16.0625 13.5 27.234375 15.40625 31.421875 
C 18.796875 38.40625 23.5 41.984375 27.40625 41.984375 
C 34 41.984375 35.296875 33.8125 35.296875 33.015625 
C 35.296875 32.921875 35 31.625 34.90625 31.421875 
z
" id="CMMI12-113"/>
      <path d="M 21.59375 -11.703125 
C 21.59375 -15.703125 19 -22.109375 8.09375 -22.8125 
C 7.59375 -22.90625 7.203125 -23.3125 7.203125 -23.90625 
C 7.203125 -25 8.296875 -25 9.203125 -25 
C 18.90625 -25 28.203125 -20.109375 28.296875 -12.5 
L 28.296875 10.296875 
C 28.296875 14.1875 28.296875 17.390625 32.296875 20.6875 
C 35.796875 23.59375 39.59375 23.796875 41.796875 23.890625 
C 42.296875 23.984375 42.703125 24.390625 42.703125 24.984375 
C 42.703125 26 42.09375 26 41.09375 26.09375 
C 34.5 26.5 29.703125 30.09375 28.59375 35 
C 28.296875 36.09375 28.296875 36.296875 28.296875 39.890625 
L 28.296875 59.6875 
C 28.296875 63.890625 28.296875 67.09375 23.5 70.890625 
C 19.5 73.984375 12.59375 75 9.203125 75 
C 8.296875 75 7.203125 75 7.203125 73.890625 
C 7.203125 72.890625 7.796875 72.890625 8.796875 72.796875 
C 15.09375 72.390625 20 69.1875 21.296875 64.09375 
C 21.59375 63.1875 21.59375 63 21.59375 59.390625 
L 21.59375 38.390625 
C 21.59375 33.796875 22.40625 32.09375 25.59375 28.890625 
C 27.703125 26.796875 30.59375 25.796875 33.40625 24.984375 
C 25.203125 22.6875 21.59375 18.09375 21.59375 12.296875 
z
" id="CMSY10-103"/>
     </defs>
     <g transform="translate(245.53652 270.94396)scale(0.2 -0.2)">
      <use transform="scale(0.996264)" xlink:href="#CMSY10-102"/>
      <use transform="translate(49.813383 0)scale(0.996264)" xlink:href="#CMMI12-113"/>
      <use transform="translate(96.639707 0)scale(0.996264)" xlink:href="#CMSY10-103"/>
     </g>
    </g>
   </g>
   <g id="matplotlib.axis_2">
    <g id="text_2">
     <!-- $\{p\}$ -->
     <defs>
      <path d="M 4.296875 -12.40625 
C 3.59375 -15.328125 3.203125 -16.109375 -0.90625 -16.109375 
C -2.109375 -16.109375 -3.109375 -16.109375 -3.109375 -18 
C -3.109375 -18.203125 -3 -19 -1.90625 -19 
C -0.609375 -19 0.796875 -18.8125 2.09375 -18.8125 
L 6.40625 -18.8125 
C 8.5 -18.8125 13.59375 -19 15.703125 -19 
C 16.296875 -19 17.5 -19 17.5 -17.203125 
C 17.5 -16.109375 16.796875 -16.109375 15.09375 -16.109375 
C 10.5 -16.109375 10.203125 -15.421875 10.203125 -14.640625 
C 10.203125 -13.484375 14.703125 3.390625 15.296875 5.6875 
C 16.40625 2.890625 19.09375 -1 24.296875 -1 
C 35.59375 -1 47.796875 13.65625 47.796875 28.328125 
C 47.796875 37.5 42.59375 44 35.09375 44 
C 28.703125 44 23.296875 37.796875 22.203125 36.40625 
C 21.40625 41.390625 17.5 44 13.5 44 
C 10.59375 44 8.296875 42.59375 6.40625 38.796875 
C 4.59375 35.203125 3.203125 29.125 3.203125 28.71875 
C 3.203125 28.328125 3.59375 27.828125 4.296875 27.828125 
C 5.09375 27.828125 5.203125 27.921875 5.796875 30.21875 
C 7.296875 36.109375 9.203125 41.984375 13.203125 41.984375 
C 15.5 41.984375 16.296875 40.390625 16.296875 37.40625 
C 16.296875 35.015625 16 34.015625 15.59375 32.21875 
z
M 21.59375 31.125 
C 22.296875 33.90625 25.09375 36.8125 26.703125 38.203125 
C 27.796875 39.203125 31.09375 41.984375 34.90625 41.984375 
C 39.296875 41.984375 41.296875 37.609375 41.296875 32.421875 
C 41.296875 27.625 38.5 16.359375 36 11.171875 
C 33.5 5.78125 28.90625 1 24.296875 1 
C 17.5 1 16.40625 9.578125 16.40625 9.96875 
C 16.40625 10.265625 16.59375 11.0625 16.703125 11.5625 
z
" id="CMMI12-112"/>
     </defs>
     <g transform="translate(78.141383 138.29868)scale(0.2 -0.2)">
      <use transform="scale(0.996264)" xlink:href="#CMSY10-102"/>
      <use transform="translate(49.813383 0)scale(0.996264)" xlink:href="#CMMI12-112"/>
      <use transform="translate(98.772897 0)scale(0.996264)" xlink:href="#CMSY10-103"/>
     </g>
    </g>
   </g>
   <g id="patch_3">
    <path d="M 108 252 
L 108 34.56 
" style="fill:none;stroke:#000000;stroke-linecap:square;stroke-linejoin:miter;stroke-width:0.8;"/>
   </g>
   <g id="patch_4">
    <path d="M 412.363636 252 
L 412.363636 34.56 
" style="fill:none;stroke:#000000;stroke-linecap:square;stroke-linejoin:miter;stroke-width:0.8;"/>
   </g>
   <g id="patch_5">
    <path d="M 108 252 
L 412.363636 252 
" style="fill:none;stroke:#000000;stroke-linecap:square;stroke-linejoin:miter;stroke-width:0.8;"/>
   </g>
   <g id="patch_6">
    <path d="M 108 34.56 
L 412.363636 34.56 
" style="fill:none;stroke:#000000;stroke-linecap:square;stroke-linejoin:miter;stroke-width:0.8;"/>
   </g>
   <g id="text_3">
    <!-- s\"usteemi olek antud ajahetkel -->
    <defs>
     <path d="M 30.90625 42 
C 30.90625 43.796875 30.796875 43.890625 30.203125 43.890625 
C 29.796875 43.890625 29.703125 43.796875 28.5 42.296875 
C 28.203125 41.890625 27.296875 40.890625 27 40.5 
C 23.796875 43.890625 19.296875 44 17.59375 44 
C 6.5 44 2.5 38.1875 2.5 32.390625 
C 2.5 23.390625 12.703125 21.296875 15.59375 20.6875 
C 21.90625 19.390625 24.09375 19 26.203125 17.1875 
C 27.5 16 29.703125 13.796875 29.703125 10.1875 
C 29.703125 6 27.296875 0.59375 18.09375 0.59375 
C 9.40625 0.59375 6.296875 7.1875 4.5 16 
C 4.203125 17.390625 4.203125 17.5 3.40625 17.5 
C 2.59375 17.5 2.5 17.390625 2.5 15.390625 
L 2.5 1 
C 2.5 -0.8125 2.59375 -0.90625 3.203125 -0.90625 
C 3.703125 -0.90625 3.796875 -0.8125 4.296875 0 
C 4.90625 0.890625 6.40625 3.296875 7 4.296875 
C 9 1.59375 12.5 -1 18.09375 -1 
C 28 -1 33.296875 4.390625 33.296875 12.1875 
C 33.296875 17.296875 30.59375 20 29.296875 21.1875 
C 26.296875 24.296875 22.796875 25 18.59375 25.796875 
C 13.09375 27 6.09375 28.390625 6.09375 34.5 
C 6.09375 37.09375 7.5 42.59375 17.59375 42.59375 
C 28.296875 42.59375 28.90625 32.59375 29.09375 29.390625 
C 29.203125 28.890625 29.703125 28.796875 30 28.796875 
C 30.90625 28.796875 30.90625 29.09375 30.90625 30.796875 
z
" id="CMR17-115"/>
     <path d="M 17.703125 61.890625 
C 17.703125 64.390625 15.703125 65.890625 13.796875 65.890625 
C 11.203125 65.890625 9.796875 63.6875 9.796875 62 
C 9.796875 60 11.40625 58 13.796875 58 
C 15.90625 58 17.703125 59.6875 17.703125 61.890625 
z
M 36 61.890625 
C 36 63.890625 34.40625 65.890625 32 65.890625 
C 29.90625 65.890625 28.09375 64.1875 28.09375 62 
C 28.09375 59.5 30.09375 58 32 58 
C 34.59375 58 36 60.1875 36 61.890625 
z
" id="CMR17-127"/>
     <path d="M 29.40625 42.890625 
L 29.40625 40.296875 
C 35.296875 40.296875 36.203125 39.6875 36.203125 34.828125 
L 36.203125 16.453125 
C 36.203125 7.96875 31.703125 0.59375 24.296875 0.59375 
C 16.09375 0.59375 15.40625 5.546875 15.40625 10.796875 
L 15.40625 44 
L 3.296875 42.890625 
L 3.296875 40.296875 
C 7.296875 40.296875 10 40.296875 10.09375 36.25 
L 10.09375 16.859375 
C 10.09375 10.09375 10.09375 5.75 12.703125 2.921875 
C 14 1.609375 16.5 -1 23.703125 -1 
C 32.203125 -1 35.5 6.25 36.296875 8.375 
L 36.40625 8.375 
L 36.40625 -1 
L 48.296875 -0.203125 
L 48.296875 2.40625 
C 42.40625 2.40625 41.5 3.015625 41.5 7.859375 
L 41.5 44 
z
" id="CMR17-117"/>
     <path d="M 15.09375 40.390625 
L 29.09375 40.390625 
L 29.09375 43 
L 15.09375 43 
L 15.09375 62 
L 13.296875 62 
C 13.09375 51.4375 9.59375 42.1875 1.09375 41.984375 
L 1.09375 40.390625 
L 9.796875 40.390625 
L 9.796875 12.15625 
C 9.796875 10.234375 9.796875 -1 21.40625 -1 
C 27.296875 -1 30.703125 4.8125 30.703125 12.25 
L 30.703125 17.984375 
L 28.90625 17.984375 
L 28.90625 12.34375 
C 28.90625 5.421875 26.203125 0.796875 22 0.796875 
C 19.09375 0.796875 15.09375 2.796875 15.09375 11.953125 
z
" id="CMR17-116"/>
     <path d="M 38.09375 23.484375 
C 38.5 23.890625 38.5 24.09375 38.5 25.09375 
C 38.5 35.171875 33.09375 44 21.703125 44 
C 11.09375 44 2.703125 33.984375 2.703125 21.78125 
C 2.703125 8.65625 12.203125 -1 22.796875 -1 
C 34 -1 38.40625 9.671875 38.40625 11.796875 
C 38.40625 12.5 37.796875 12.5 37.59375 12.5 
C 36.90625 12.5 36.796875 12.296875 36.40625 11.078125 
C 34.203125 4.21875 28.703125 0.796875 23.5 0.796875 
C 19.203125 0.796875 14.90625 3.21875 12.203125 7.65625 
C 9.09375 12.796875 9.09375 18.75 9.09375 23.484375 
z
M 9.203125 25 
C 9.90625 39.234375 17.59375 42.390625 21.59375 42.390625 
C 28.40625 42.390625 33 36.0625 33.09375 25 
z
" id="CMR17-101"/>
     <path d="M 67.59375 30.53125 
C 67.59375 35.5625 66.703125 44 54.796875 44 
C 48 44 43.296875 39.375 41.5 33.953125 
L 41.40625 33.953125 
C 40.203125 42.1875 34.296875 44 28.703125 44 
C 20.796875 44 16.703125 37.875 15.203125 33.84375 
L 15.09375 33.84375 
L 15.09375 44 
L 3.296875 42.890625 
L 3.296875 40.28125 
C 9.203125 40.28125 10.09375 39.6875 10.09375 34.859375 
L 10.09375 6.921875 
C 10.09375 3.09375 9.703125 2.59375 3.296875 2.59375 
L 3.296875 0 
C 5.703125 0.1875 10.09375 0.1875 12.703125 0.1875 
C 15.296875 0.1875 19.796875 0.1875 22.203125 0 
L 22.203125 2.59375 
C 15.796875 2.59375 15.40625 3 15.40625 6.921875 
L 15.40625 26.21875 
C 15.40625 35.453125 21 42.390625 28 42.390625 
C 35.40625 42.390625 36.203125 35.765625 36.203125 30.9375 
L 36.203125 6.921875 
C 36.203125 3.09375 35.796875 2.59375 29.40625 2.59375 
L 29.40625 0 
C 31.796875 0.1875 36.203125 0.1875 38.796875 0.1875 
C 41.40625 0.1875 45.90625 0.1875 48.296875 0 
L 48.296875 2.59375 
C 41.90625 2.59375 41.5 3 41.5 6.921875 
L 41.5 26.21875 
C 41.5 35.453125 47.09375 42.390625 54.09375 42.390625 
C 61.5 42.390625 62.296875 35.765625 62.296875 30.9375 
L 62.296875 6.921875 
C 62.296875 3.09375 61.90625 2.59375 55.5 2.59375 
L 55.5 0 
C 57.90625 0.1875 62.296875 0.1875 64.90625 0.1875 
C 67.5 0.1875 72 0.1875 74.40625 0 
L 74.40625 2.59375 
C 68 2.59375 67.59375 3 67.59375 6.921875 
z
" id="CMR17-109"/>
     <path d="M 15.5 61.890625 
C 15.5 64.09375 13.703125 66 11.40625 66 
C 9.203125 66 7.296875 64.1875 7.296875 61.890625 
C 7.296875 59.6875 9.09375 57.796875 11.40625 57.796875 
C 13.59375 57.796875 15.5 59.59375 15.5 61.890625 
z
M 3.796875 42.890625 
L 3.796875 40.296875 
C 9.40625 40.296875 10.203125 39.6875 10.203125 34.859375 
L 10.203125 6.921875 
C 10.203125 3.09375 9.796875 2.59375 3.40625 2.59375 
L 3.40625 0 
C 5.796875 0.1875 10.09375 0.1875 12.59375 0.1875 
C 15 0.1875 19.09375 0.1875 21.40625 0 
L 21.40625 2.59375 
C 15.5 2.59375 15.296875 3.203125 15.296875 6.8125 
L 15.296875 44 
z
" id="CMR17-105"/>
     <path d="M 43.09375 21.1875 
C 43.09375 34 33.796875 44 22.90625 44 
C 12 44 2.703125 34 2.703125 21.1875 
C 2.703125 8.59375 12 -1 22.90625 -1 
C 33.796875 -1 43.09375 8.59375 43.09375 21.1875 
z
M 22.90625 0.796875 
C 18.203125 0.796875 14.203125 3.59375 11.90625 7.5 
C 9.40625 12 9.09375 17.59375 9.09375 22 
C 9.09375 26.1875 9.296875 31.390625 11.90625 35.890625 
C 13.90625 39.1875 17.796875 42.390625 22.90625 42.390625 
C 27.40625 42.390625 31.203125 39.890625 33.59375 36.390625 
C 36.703125 31.6875 36.703125 25.09375 36.703125 22 
C 36.703125 18.09375 36.5 12.09375 33.796875 7.296875 
C 31 2.6875 26.703125 0.796875 22.90625 0.796875 
z
" id="CMR17-111"/>
     <path d="M 15.296875 69 
L 3.40625 67.890625 
L 3.40625 65.296875 
C 9.296875 65.296875 10.203125 64.703125 10.203125 59.921875 
L 10.203125 6.859375 
C 10.203125 3.09375 9.796875 2.59375 3.40625 2.59375 
L 3.40625 0 
C 5.796875 0.1875 10.203125 0.1875 12.703125 0.1875 
C 15.296875 0.1875 19.703125 0.1875 22.09375 0 
L 22.09375 2.59375 
C 15.703125 2.59375 15.296875 2.984375 15.296875 6.859375 
z
" id="CMR17-108"/>
     <path d="M 26.09375 26.234375 
C 26 26.4375 25.5 27.03125 25.5 27.328125 
C 25.5 27.53125 32.59375 33.984375 33.5 34.78125 
C 39.203125 39.5625 42.796875 40.046875 45.40625 40.15625 
L 45.40625 42.734375 
C 44.796875 42.734375 44.59375 42.734375 44.5 42.640625 
L 39.59375 42.53125 
C 36.796875 42.53125 32.5 42.53125 29.796875 42.734375 
L 29.796875 40.15625 
C 31.203125 40.046875 32.203125 39.265625 32.203125 37.859375 
C 32.203125 35.875 30.203125 33.984375 30.09375 33.984375 
L 15 20.28125 
L 15 69 
L 3.09375 67.890625 
L 3.09375 65.296875 
C 9 65.296875 9.90625 64.703125 9.90625 59.921875 
L 9.90625 6.859375 
C 9.90625 3.09375 9.5 2.59375 3.09375 2.59375 
L 3.09375 0 
C 5.5 0.1875 9.90625 0.1875 12.40625 0.1875 
C 14.90625 0.1875 19.296875 0.1875 21.703125 0 
L 21.703125 2.59375 
C 15.296875 2.59375 14.90625 2.984375 14.90625 6.859375 
L 14.90625 17.796875 
L 21.796875 24.0625 
L 31.90625 9.15625 
C 33.09375 7.359375 34.09375 5.96875 34.09375 4.671875 
C 34.09375 2.890625 32.296875 2.59375 31.09375 2.59375 
L 31.09375 0 
C 33.5 0.1875 37.796875 0.1875 40.296875 0.1875 
C 42.09375 0.1875 45.796875 0.09375 47.5 0 
L 47.5 2.59375 
C 42.796875 2.59375 41.703125 3.484375 38.703125 7.859375 
z
" id="CMR17-107"/>
     <path d="M 36 25.875 
C 36 32 36 35.546875 31.796875 39.59375 
C 28.09375 42.984375 23.796875 44 20.40625 44 
C 12.5 44 6.796875 37.625 6.796875 30.890625 
C 6.796875 27.1875 9.796875 27 10.40625 27 
C 11.703125 27 14 27.796875 14 30.59375 
C 14 33.09375 12.09375 34.1875 10.40625 34.1875 
C 10 34.1875 9.5 34.09375 9.203125 34 
C 11.296875 40.53125 16.703125 42.390625 20.203125 42.390625 
C 25.203125 42.390625 30.703125 37.828125 30.703125 29.296875 
L 30.703125 25.5 
C 24.796875 25.296875 17.703125 24.5 12.09375 21.453125 
C 5.796875 17.921875 4 12.84375 4 9 
C 4 1.203125 13 -1 18.296875 -1 
C 23.796875 -1 28.90625 2.109375 31.09375 7.890625 
C 31.296875 3.421875 34.09375 -0.609375 38.5 -0.609375 
C 40.59375 -0.609375 45.90625 0.796875 45.90625 8.796875 
L 45.90625 14.46875 
L 44.09375 14.46875 
L 44.09375 8.703125 
C 44.09375 2.515625 41.40625 1.703125 40.09375 1.703125 
C 36 1.703125 36 6.96875 36 11.4375 
z
M 30.703125 13.859375 
C 30.703125 5.046875 24.5 0.59375 19 0.59375 
C 14 0.59375 10.09375 4.34375 10.09375 9 
C 10.09375 12.046875 11.40625 17.40625 17.203125 20.65625 
C 22 23.390625 27.5 23.796875 30.703125 24 
z
" id="CMR17-97"/>
     <path d="M 41.5 30.53125 
C 41.5 35.65625 40.5 44 28.703125 44 
C 20.796875 44 16.703125 37.875 15.203125 33.84375 
L 15.09375 33.84375 
L 15.09375 44 
L 3.296875 42.890625 
L 3.296875 40.28125 
C 9.203125 40.28125 10.09375 39.6875 10.09375 34.859375 
L 10.09375 6.921875 
C 10.09375 3.09375 9.703125 2.59375 3.296875 2.59375 
L 3.296875 0 
C 5.703125 0.1875 10.09375 0.1875 12.703125 0.1875 
C 15.296875 0.1875 19.796875 0.1875 22.203125 0 
L 22.203125 2.59375 
C 15.796875 2.59375 15.40625 3 15.40625 6.921875 
L 15.40625 26.21875 
C 15.40625 35.453125 21 42.390625 28 42.390625 
C 35.40625 42.390625 36.203125 35.765625 36.203125 30.9375 
L 36.203125 6.921875 
C 36.203125 3.09375 35.796875 2.59375 29.40625 2.59375 
L 29.40625 0 
C 31.796875 0.1875 36.203125 0.1875 38.796875 0.1875 
C 41.40625 0.1875 45.90625 0.1875 48.296875 0 
L 48.296875 2.59375 
C 41.90625 2.59375 41.5 3 41.5 6.921875 
z
" id="CMR17-110"/>
     <path d="M 29.203125 67.890625 
L 29.203125 65.296875 
C 35.09375 65.296875 36 64.703125 36 60.046875 
L 36 37.046875 
C 35.59375 37.546875 31.5 44 23.40625 44 
C 13.203125 44 3.296875 34.8125 3.296875 21.5 
C 3.296875 8.265625 12.59375 -1 22.40625 -1 
C 30.90625 -1 35.296875 5.640625 35.796875 6.34375 
L 35.796875 -1 
L 47.90625 -0.203125 
L 47.90625 2.40625 
C 42 2.40625 41.09375 3.015625 41.09375 7.859375 
L 41.09375 69 
z
M 35.796875 11.90625 
C 35.796875 8.875 34 6.140625 31.703125 4.125 
C 28.296875 1.09375 24.90625 0.59375 23 0.59375 
C 20.09375 0.59375 9.703125 2.109375 9.703125 21.390625 
C 9.703125 41.1875 21.296875 42.390625 23.90625 42.390625 
C 28.5 42.390625 32.203125 39.765625 34.5 36.140625 
C 35.796875 34.015625 35.796875 33.703125 35.796875 31.890625 
z
" id="CMR17-100"/>
     <path d="M 18.203125 61.890625 
C 18.203125 64.09375 16.40625 66 14.09375 66 
C 11.90625 66 10 64.1875 10 61.890625 
C 10 59.6875 11.796875 57.796875 14.09375 57.796875 
C 16.296875 57.796875 18.203125 59.59375 18.203125 61.890625 
z
M 5.703125 42.890625 
L 5.703125 40.296875 
C 12.296875 40.296875 13.09375 39.578125 13.09375 34.703125 
L 13.09375 -6.40625 
C 13.09375 -11.484375 12.203125 -19.40625 6.296875 -19.40625 
C 5.59375 -19.40625 2.90625 -19.3125 0.703125 -17.890625 
C 1.40625 -17.78125 3.90625 -17.078125 3.90625 -14.234375 
C 3.90625 -12.296875 2.59375 -10.578125 0.296875 -10.578125 
C -1.90625 -10.578125 -3.296875 -12.09375 -3.296875 -14.328125 
C -3.296875 -18.390625 1.09375 -21 6.203125 -21 
C 13.09375 -21 18.203125 -14.640625 18.203125 -6 
L 18.203125 44 
z
" id="CMR17-106"/>
     <path d="M 41.5 30.53125 
C 41.5 35.65625 40.5 44 28.703125 44 
C 20.5 44 16.5 37.375 15.296875 34.046875 
L 15.203125 34.046875 
L 15.203125 69 
L 3.296875 67.890625 
L 3.296875 65.296875 
C 9.203125 65.296875 10.09375 64.703125 10.09375 60.046875 
L 10.09375 6.921875 
C 10.09375 3.09375 9.703125 2.59375 3.296875 2.59375 
L 3.296875 0 
C 5.703125 0.1875 10.09375 0.1875 12.703125 0.1875 
C 15.296875 0.1875 19.796875 0.1875 22.203125 0 
L 22.203125 2.59375 
C 15.796875 2.59375 15.40625 3 15.40625 6.921875 
L 15.40625 26.21875 
C 15.40625 35.453125 21 42.390625 28 42.390625 
C 35.40625 42.390625 36.203125 35.765625 36.203125 30.9375 
L 36.203125 6.921875 
C 36.203125 3.09375 35.796875 2.59375 29.40625 2.59375 
L 29.40625 0 
C 31.796875 0.1875 36.203125 0.1875 38.796875 0.1875 
C 41.40625 0.1875 45.90625 0.1875 48.296875 0 
L 48.296875 2.59375 
C 41.90625 2.59375 41.5 3 41.5 6.921875 
z
" id="CMR17-104"/>
    </defs>
    <g transform="translate(118.230022 28.56)scale(0.24 -0.24)">
     <use transform="scale(0.996264)" xlink:href="#CMR17-115"/>
     <use transform="translate(38.403792 0)scale(0.996264)" xlink:href="#CMR17-127"/>
     <use transform="translate(35.801338 0)scale(0.996264)" xlink:href="#CMR17-117"/>
     <use transform="translate(86.696707 0)scale(0.996264)" xlink:href="#CMR17-115"/>
     <use transform="translate(122.498045 0)scale(0.996264)" xlink:href="#CMR17-116"/>
     <use transform="translate(157.778813 0)scale(0.996264)" xlink:href="#CMR17-101"/>
     <use transform="translate(198.264473 0)scale(0.996264)" xlink:href="#CMR17-101"/>
     <use transform="translate(238.750134 0)scale(0.996264)" xlink:href="#CMR17-109"/>
     <use transform="translate(315.669724 0)scale(0.996264)" xlink:href="#CMR17-105"/>
     <use transform="translate(370.616748 0)scale(0.996264)" xlink:href="#CMR17-111"/>
     <use transform="translate(416.307226 0)scale(0.996264)" xlink:href="#CMR17-108"/>
     <use transform="translate(441.178284 0)scale(0.996264)" xlink:href="#CMR17-101"/>
     <use transform="translate(481.663945 0)scale(0.996264)" xlink:href="#CMR17-107"/>
     <use transform="translate(560.032827 0)scale(0.996264)" xlink:href="#CMR17-97"/>
     <use transform="translate(605.723304 0)scale(0.996264)" xlink:href="#CMR17-110"/>
     <use transform="translate(654.01622 0)scale(0.996264)" xlink:href="#CMR17-116"/>
     <use transform="translate(689.296987 0)scale(0.996264)" xlink:href="#CMR17-117"/>
     <use transform="translate(740.192357 0)scale(0.996264)" xlink:href="#CMR17-100"/>
     <use transform="translate(821.163693 0)scale(0.996264)" xlink:href="#CMR17-97"/>
     <use transform="translate(872.058972 0)scale(0.996264)" xlink:href="#CMR17-106"/>
     <use transform="translate(899.532484 0)scale(0.996264)" xlink:href="#CMR17-97"/>
     <use transform="translate(945.222962 0)scale(0.996264)" xlink:href="#CMR17-104"/>
     <use transform="translate(996.118331 0)scale(0.996264)" xlink:href="#CMR17-101"/>
     <use transform="translate(1036.603992 0)scale(0.996264)" xlink:href="#CMR17-116"/>
     <use transform="translate(1071.88476 0)scale(0.996264)" xlink:href="#CMR17-107"/>
     <use transform="translate(1117.575221 0)scale(0.996264)" xlink:href="#CMR17-101"/>
     <use transform="translate(1158.060882 0)scale(0.996264)" xlink:href="#CMR17-108"/>
    </g>
   </g>
  </g>
  <g id="axes_2">
   <g id="patch_7">
    <path d="M 473.236364 252 
L 777.6 252 
L 777.6 34.56 
L 473.236364 34.56 
z
" style="fill:#ffffff;"/>
   </g>
   <g id="PathCollection_2">
    <g clip-path="url(#p0afb23be3d)">
     <use style="fill:#0000ff;stroke:#0000ff;stroke-width:3;" x="534.109091" xlink:href="#m0dad1e8ea2" y="143.28"/>
    </g>
   </g>
   <g id="matplotlib.axis_3">
    <g id="text_4">
     <!-- $\{q\}$ -->
     <g transform="translate(610.772883 270.94396)scale(0.2 -0.2)">
      <use transform="scale(0.996264)" xlink:href="#CMSY10-102"/>
      <use transform="translate(49.813383 0)scale(0.996264)" xlink:href="#CMMI12-113"/>
      <use transform="translate(96.639707 0)scale(0.996264)" xlink:href="#CMSY10-103"/>
     </g>
    </g>
   </g>
   <g id="matplotlib.axis_4">
    <g id="text_5">
     <!-- $\{p\}$ -->
     <g transform="translate(443.377746 138.29868)scale(0.2 -0.2)">
      <use transform="scale(0.996264)" xlink:href="#CMSY10-102"/>
      <use transform="translate(49.813383 0)scale(0.996264)" xlink:href="#CMMI12-112"/>
      <use transform="translate(98.772897 0)scale(0.996264)" xlink:href="#CMSY10-103"/>
     </g>
    </g>
   </g>
   <g id="line2d_1">
    <path clip-path="url(#p0afb23be3d)" d="M 534.109091 143.28 
L 535.953719 140.571141 
L 537.798347 137.743856 
L 539.642975 134.843127 
L 541.487603 131.917278 
L 543.332231 129.017191 
L 545.17686 126.195436 
L 547.021488 123.505359 
L 548.866116 121.000116 
L 550.710744 118.7317 
L 552.555372 116.74995 
L 554.4 115.101576 
L 556.244628 113.82922 
L 558.089256 112.970555 
L 559.933884 112.557453 
L 561.778512 112.615237 
L 563.62314 113.162027 
L 565.467769 114.208193 
L 567.312397 115.755936 
L 569.157025 117.798994 
L 571.001653 120.322498 
L 572.846281 123.302964 
L 574.690909 126.70844 
L 576.535537 130.498803 
L 578.380165 134.626203 
L 580.224793 139.035649 
L 582.069421 143.665737 
L 583.91405 148.449502 
L 585.758678 153.315384 
L 587.603306 158.1883 
L 589.447934 162.990802 
L 591.292562 167.644296 
L 593.13719 172.070316 
L 594.981818 176.191827 
L 596.826446 179.934532 
L 598.671074 183.228162 
L 600.515702 186.007737 
L 602.360331 188.214761 
L 604.204959 189.798339 
L 606.049587 190.7162 
L 607.894215 190.935591 
L 609.738843 190.434046 
L 611.583471 189.199994 
L 613.428099 187.233209 
L 615.272727 184.54508 
L 617.117355 181.158704 
L 618.961983 177.108783 
L 620.806612 172.441337 
L 622.65124 167.213225 
L 624.495868 161.491483 
L 626.340496 155.352477 
L 628.185124 148.880901 
L 630.029752 142.168609 
L 631.87438 135.313312 
L 633.719008 128.41716 
L 635.563636 121.585215 
L 637.408264 114.923857 
L 639.252893 108.53913 
L 641.097521 102.535067 
L 642.942149 97.012007 
L 644.786777 92.06495 
L 646.631405 87.781951 
L 648.476033 84.242605 
L 650.320661 81.516634 
L 652.165289 79.6626 
L 654.009917 78.726776 
L 655.854545 78.742183 
L 657.699174 79.727828 
L 659.543802 81.688141 
L 661.38843 84.612628 
L 663.233058 88.475764 
L 665.077686 93.237107 
L 666.922314 98.841658 
L 668.766942 105.220444 
L 670.61157 112.29134 
L 672.456198 119.960103 
L 674.300826 128.121617 
L 676.145455 136.661327 
L 677.990083 145.456841 
L 679.834711 154.379684 
L 681.679339 163.297179 
L 683.523967 172.074412 
L 685.368595 180.576277 
L 687.213223 188.669548 
L 689.057851 196.22496 
L 690.902479 203.11926 
L 692.747107 209.237195 
L 694.591736 214.473415 
L 696.436364 218.734241 
L 698.280992 221.939291 
L 700.12562 224.022921 
L 701.970248 224.935461 
L 703.814876 224.644223 
L 705.659504 223.134267 
L 707.504132 220.408897 
L 709.34876 216.489896 
L 711.193388 211.417467 
L 713.038017 205.2499 
L 714.882645 198.062956 
L 716.727273 189.948966 
" style="fill:none;stroke:#0000ff;stroke-linecap:square;stroke-width:1.5;"/>
   </g>
   <g id="patch_8">
    <path d="M 473.236364 252 
L 473.236364 34.56 
" style="fill:none;stroke:#000000;stroke-linecap:square;stroke-linejoin:miter;stroke-width:0.8;"/>
   </g>
   <g id="patch_9">
    <path d="M 777.6 252 
L 777.6 34.56 
" style="fill:none;stroke:#000000;stroke-linecap:square;stroke-linejoin:miter;stroke-width:0.8;"/>
   </g>
   <g id="patch_10">
    <path d="M 473.236364 252 
L 777.6 252 
" style="fill:none;stroke:#000000;stroke-linecap:square;stroke-linejoin:miter;stroke-width:0.8;"/>
   </g>
   <g id="patch_11">
    <path d="M 473.236364 34.56 
L 777.6 34.56 
" style="fill:none;stroke:#000000;stroke-linecap:square;stroke-linejoin:miter;stroke-width:0.8;"/>
   </g>
   <g id="text_6">
    <!-- s\"usteemi evolutsioon ajas -->
    <defs>
     <path d="M 39.09375 33.953125 
C 40 36.171875 41.59375 40.1875 47.40625 40.390625 
L 47.40625 43 
C 45.5 42.890625 43 42.796875 41.09375 42.796875 
C 39 42.796875 35.703125 42.796875 33.703125 43 
L 33.703125 40.390625 
C 36.203125 40.1875 37.59375 38.984375 37.59375 36.375 
C 37.59375 35.46875 37.59375 35.265625 37 33.859375 
L 26 5.921875 
L 14.09375 36.0625 
C 13.5 37.375 13.5 37.578125 13.5 37.984375 
C 13.5 40.390625 16.796875 40.390625 18.296875 40.390625 
L 18.296875 43 
C 15.90625 42.796875 11.5 42.796875 9 42.796875 
C 6.296875 42.796875 3.203125 42.796875 1 43 
L 1 40.390625 
C 4.796875 40.390625 6.90625 40.390625 8.09375 37.28125 
L 22.59375 0.6875 
C 23.203125 -0.8125 23.296875 -1 24.203125 -1 
C 25.09375 -1 25.203125 -0.8125 25.796875 0.6875 
z
" id="CMR17-118"/>
    </defs>
    <g transform="translate(504.336016 28.56)scale(0.24 -0.24)">
     <use transform="scale(0.996264)" xlink:href="#CMR17-115"/>
     <use transform="translate(38.403792 0)scale(0.996264)" xlink:href="#CMR17-127"/>
     <use transform="translate(35.801338 0)scale(0.996264)" xlink:href="#CMR17-117"/>
     <use transform="translate(86.696707 0)scale(0.996264)" xlink:href="#CMR17-115"/>
     <use transform="translate(122.498045 0)scale(0.996264)" xlink:href="#CMR17-116"/>
     <use transform="translate(157.778813 0)scale(0.996264)" xlink:href="#CMR17-101"/>
     <use transform="translate(198.264473 0)scale(0.996264)" xlink:href="#CMR17-101"/>
     <use transform="translate(238.750134 0)scale(0.996264)" xlink:href="#CMR17-109"/>
     <use transform="translate(315.669724 0)scale(0.996264)" xlink:href="#CMR17-105"/>
     <use transform="translate(370.616748 0)scale(0.996264)" xlink:href="#CMR17-101"/>
     <use transform="translate(411.102409 0)scale(0.996264)" xlink:href="#CMR17-118"/>
     <use transform="translate(456.792871 0)scale(0.996264)" xlink:href="#CMR17-111"/>
     <use transform="translate(502.483348 0)scale(0.996264)" xlink:href="#CMR17-108"/>
     <use transform="translate(527.354406 0)scale(0.996264)" xlink:href="#CMR17-117"/>
     <use transform="translate(578.249776 0)scale(0.996264)" xlink:href="#CMR17-116"/>
     <use transform="translate(613.530544 0)scale(0.996264)" xlink:href="#CMR17-115"/>
     <use transform="translate(649.331882 0)scale(0.996264)" xlink:href="#CMR17-105"/>
     <use transform="translate(674.20294 0)scale(0.996264)" xlink:href="#CMR17-111"/>
     <use transform="translate(722.495856 0)scale(0.996264)" xlink:href="#CMR17-111"/>
     <use transform="translate(768.186333 0)scale(0.996264)" xlink:href="#CMR17-110"/>
     <use transform="translate(849.157669 0)scale(0.996264)" xlink:href="#CMR17-97"/>
     <use transform="translate(900.052948 0)scale(0.996264)" xlink:href="#CMR17-106"/>
     <use transform="translate(927.52646 0)scale(0.996264)" xlink:href="#CMR17-97"/>
     <use transform="translate(973.216937 0)scale(0.996264)" xlink:href="#CMR17-115"/>
    </g>
   </g>
  </g>
 </g>
 <defs>
  <clipPath id="p3ada097c15">
   <rect height="217.44" width="304.363636" x="108" y="34.56"/>
  </clipPath>
  <clipPath id="p0afb23be3d">
   <rect height="217.44" width="304.363636" x="473.236364" y="34.56"/>
  </clipPath>
 </defs>
</svg>
