<?xml version="1.0" encoding="utf-8" standalone="no"?>
<!DOCTYPE svg PUBLIC "-//W3C//DTD SVG 1.1//EN"
  "http://www.w3.org/Graphics/SVG/1.1/DTD/svg11.dtd">
<!-- Created with matplotlib (http://matplotlib.org/) -->
<svg height="216pt" version="1.1" viewBox="0 0 864 216" width="864pt" xmlns="http://www.w3.org/2000/svg" xmlns:xlink="http://www.w3.org/1999/xlink">
 <defs>
  <style type="text/css">
*{stroke-linecap:butt;stroke-linejoin:round;}
  </style>
 </defs>
 <g id="figure_1">
  <g id="patch_1">
   <path d="M 0 216 
L 864 216 
L 864 0 
L 0 0 
z
" style="fill:#ffffff;"/>
  </g>
  <g id="axes_1">
   <g id="PathCollection_1">
    <defs>
     <path d="M 0 2.236068 
C 0.593012 2.236068 1.161816 2.000462 1.581139 1.581139 
C 2.000462 1.161816 2.236068 0.593012 2.236068 0 
C 2.236068 -0.593012 2.000462 -1.161816 1.581139 -1.581139 
C 1.161816 -2.000462 0.593012 -2.236068 0 -2.236068 
C -0.593012 -2.236068 -1.161816 -2.000462 -1.581139 -1.581139 
C -2.000462 -1.161816 -2.236068 -0.593012 -2.236068 0 
C -2.236068 0.593012 -2.000462 1.161816 -1.581139 1.581139 
C -1.161816 2.000462 -0.593012 2.236068 0 2.236068 
z
" id="mdf52f35b03" style="stroke:#000000;"/>
    </defs>
    <g clip-path="url(#p2c23d962ec)">
     <use style="stroke:#000000;" x="204.381818" xlink:href="#mdf52f35b03" y="119.108571"/>
    </g>
   </g>
   <g id="line2d_1">
    <path clip-path="url(#p2c23d962ec)" d="M 133.363636 165.702857 
L 135.92562 142.406903 
L 138.487603 132.925923 
L 141.049587 125.766935 
L 143.61157 119.829633 
L 146.173554 114.685683 
L 148.735537 110.114407 
L 151.297521 105.984149 
L 153.859504 102.208788 
L 156.421488 98.72828 
L 158.983471 95.498758 
L 161.545455 92.487001 
L 164.107438 89.667128 
L 166.669421 87.018506 
L 169.231405 84.524371 
L 171.793388 82.170884 
L 174.355372 79.946464 
L 176.917355 77.841308 
L 179.479339 75.847033 
L 182.041322 73.956409 
L 184.603306 72.163149 
L 187.165289 70.461754 
L 189.727273 68.847383 
L 192.289256 67.315752 
L 194.85124 65.863053 
L 197.413223 64.485887 
L 199.975207 63.181211 
L 202.53719 61.946289 
L 205.099174 60.778659 
L 207.661157 59.676098 
L 210.22314 58.636595 
L 212.785124 57.65833 
L 215.347107 56.739655 
L 217.909091 55.879072 
L 220.471074 55.075228 
L 223.033058 54.326893 
L 225.595041 53.632955 
L 228.157025 52.992409 
L 230.719008 52.404351 
L 233.280992 51.867966 
L 235.842975 51.382527 
L 238.404959 50.947388 
L 240.966942 50.561978 
L 243.528926 50.2258 
L 246.090909 49.938424 
L 248.652893 49.699487 
L 251.214876 49.508692 
L 253.77686 49.365801 
L 256.338843 49.270638 
L 258.900826 49.223086 
L 261.46281 49.223086 
L 264.024793 49.270638 
L 266.586777 49.365801 
L 269.14876 49.508692 
L 271.710744 49.699487 
L 274.272727 49.938424 
L 276.834711 50.2258 
L 279.396694 50.561978 
L 281.958678 50.947388 
L 284.520661 51.382527 
L 287.082645 51.867966 
L 289.644628 52.404351 
L 292.206612 52.992409 
L 294.768595 53.632955 
L 297.330579 54.326893 
L 299.892562 55.075228 
L 302.454545 55.879072 
L 305.016529 56.739655 
L 307.578512 57.65833 
L 310.140496 58.636595 
L 312.702479 59.676098 
L 315.264463 60.778659 
L 317.826446 61.946289 
L 320.38843 63.181211 
L 322.950413 64.485887 
L 325.512397 65.863053 
L 328.07438 67.315752 
L 330.636364 68.847383 
L 333.198347 70.461754 
L 335.760331 72.163149 
L 338.322314 73.956409 
L 340.884298 75.847033 
L 343.446281 77.841308 
L 346.008264 79.946464 
L 348.570248 82.170884 
L 351.132231 84.524371 
L 353.694215 87.018506 
L 356.256198 89.667128 
L 358.818182 92.487001 
L 361.380165 95.498758 
L 363.942149 98.72828 
L 366.504132 102.208788 
L 369.066116 105.984149 
L 371.628099 110.114407 
L 374.190083 114.685683 
L 376.752066 119.829633 
L 379.31405 125.766935 
L 381.876033 132.925923 
L 384.438017 142.406903 
L 387 165.702857 
" style="fill:none;stroke:#0000ff;stroke-linecap:square;stroke-width:3;"/>
   </g>
   <g id="line2d_2">
    <path clip-path="url(#p2c23d962ec)" d="M 133.363636 165.702857 
L 387 165.702857 
" style="fill:none;stroke:#0000ff;stroke-linecap:square;stroke-width:3;"/>
   </g>
   <g id="line2d_3">
    <path clip-path="url(#p2c23d962ec)" d="M 315.981818 156.384 
L 326.127273 165.702857 
L 315.981818 175.021714 
" style="fill:none;stroke:#0000ff;stroke-linecap:square;stroke-width:3;"/>
   </g>
   <g id="line2d_4">
    <path clip-path="url(#p2c23d962ec)" d="M 108 165.702857 
L 412.363636 165.702857 
" style="fill:none;stroke:#000000;stroke-dasharray:5.55,2.4;stroke-dashoffset:0;stroke-width:1.5;"/>
   </g>
   <g id="line2d_5">
    <path clip-path="url(#p2c23d962ec)" d="M 260.181818 189 
L 260.181818 25.92 
" style="fill:none;stroke:#000000;stroke-dasharray:5.55,2.4;stroke-dashoffset:0;stroke-width:1.5;"/>
   </g>
   <g id="text_1">
    <!-- $\mathrm{Re}\omega^\prime$ -->
    <defs>
     <path d="M 39.203125 33.6875 
C 48.703125 35.59375 56.703125 42.015625 56.703125 50.046875 
C 56.703125 59.46875 46.09375 68 32.09375 68 
L 5.203125 68 
L 5.203125 65.390625 
C 12.09375 65.390625 13.203125 65.390625 13.203125 60.875 
L 13.203125 6.6875 
C 13.203125 2.1875 12.09375 2.1875 5.203125 2.1875 
L 5.203125 -0.40625 
C 8.09375 -0.203125 13.296875 -0.203125 16.40625 -0.203125 
C 19.5 -0.203125 24.703125 -0.203125 27.59375 -0.40625 
L 27.59375 2.1875 
C 20.703125 2.1875 19.59375 2.1875 19.59375 6.6875 
L 19.59375 33 
L 31.296875 33 
C 37 33 40.203125 30.6875 41.59375 29.390625 
C 45.59375 25.5 45.59375 22.796875 45.59375 16 
C 45.59375 9.296875 45.59375 5.890625 48.59375 2.5 
C 52.40625 -1.609375 57.5 -2 59.703125 -2 
C 67.09375 -2 68.203125 6.296875 68.203125 8 
C 68.203125 8.59375 68.203125 9.296875 67.296875 9.296875 
C 66.5 9.296875 66.40625 8.6875 66.40625 8.296875 
C 65.90625 1.796875 63 -0.40625 59.90625 -0.40625 
C 54.40625 -0.40625 53.796875 5.890625 53.203125 12 
C 52.90625 14.09375 52.703125 15.59375 52.5 17.796875 
C 51.90625 22.796875 51.09375 30.09375 39.203125 33.6875 
z
M 31 34.59375 
L 19.59375 34.59375 
L 19.59375 61.484375 
C 19.59375 64.890625 19.796875 65.390625 23.796875 65.390625 
L 31.09375 65.390625 
C 39.40625 65.390625 49.09375 62.484375 49.09375 50.046875 
C 49.09375 37.09375 38.5 34.59375 31 34.59375 
z
" id="CMR17-82"/>
     <path d="M 38.09375 23.484375 
C 38.5 23.890625 38.5 24.09375 38.5 25.09375 
C 38.5 35.171875 33.09375 44 21.703125 44 
C 11.09375 44 2.703125 33.984375 2.703125 21.78125 
C 2.703125 8.65625 12.203125 -1 22.796875 -1 
C 34 -1 38.40625 9.671875 38.40625 11.796875 
C 38.40625 12.5 37.796875 12.5 37.59375 12.5 
C 36.90625 12.5 36.796875 12.296875 36.40625 11.078125 
C 34.203125 4.21875 28.703125 0.796875 23.5 0.796875 
C 19.203125 0.796875 14.90625 3.21875 12.203125 7.65625 
C 9.09375 12.796875 9.09375 18.75 9.09375 23.484375 
z
M 9.203125 25 
C 9.90625 39.234375 17.59375 42.390625 21.59375 42.390625 
C 28.40625 42.390625 33 36.0625 33.09375 25 
z
" id="CMR17-101"/>
     <path d="M 59.40625 37.59375 
C 59.40625 40.5 58.59375 44.1875 55.09375 44.1875 
C 53.09375 44.1875 50.796875 41.6875 50.796875 39.6875 
C 50.796875 38.796875 51.203125 38.1875 52 37.296875 
C 53.5 35.59375 55.40625 32.890625 55.40625 28.1875 
C 55.40625 24.59375 53.203125 18.890625 51.59375 15.796875 
C 48.796875 10.296875 44.203125 5.59375 39 5.59375 
C 32.703125 5.59375 30.296875 9.59375 29.203125 15.1875 
C 30.296875 17.796875 32.59375 24.296875 32.59375 26.890625 
C 32.59375 28 32.203125 28.890625 30.90625 28.890625 
C 30.203125 28.890625 29.40625 28.5 28.90625 27.6875 
C 27.5 25.5 26.203125 17.59375 26.296875 15.5 
C 24.40625 11.796875 19 5.59375 12.59375 5.59375 
C 5.90625 5.59375 4.09375 11.5 4.09375 17.1875 
C 4.09375 27.59375 10.59375 36.6875 12.40625 39.1875 
C 13.40625 40.6875 14.09375 41.6875 14.09375 41.890625 
C 14.09375 42.59375 13.703125 43.6875 12.796875 43.6875 
C 11.203125 43.6875 10.703125 42.390625 9.90625 41.1875 
C 4.796875 33.296875 1.203125 22.1875 1.203125 12.59375 
C 1.203125 6.390625 3.5 -1 11 -1 
C 19.296875 -1 24.5 6.09375 26.59375 9.890625 
C 27.40625 4.296875 30.40625 -1 37.703125 -1 
C 45.296875 -1 50.09375 5.6875 53.703125 13.796875 
C 56.296875 19.59375 59.40625 32.09375 59.40625 37.59375 
z
" id="CMMI12-33"/>
     <path d="M 25.296875 47.625 
C 25.796875 48.828125 26.203125 49.71875 26.203125 50.71875 
C 26.203125 53.59375 23.59375 56 20.5 56 
C 17.703125 56 15.90625 54.09375 15.203125 51.515625 
L 3.296875 8.078125 
C 3.296875 7.890625 2.90625 6.796875 2.90625 6.6875 
C 2.90625 5.59375 5.5 4.890625 6.296875 4.890625 
C 6.90625 4.890625 7 5.1875 7.59375 6.484375 
z
" id="CMSY10-48"/>
    </defs>
    <g transform="translate(397.145455 156.384)scale(0.2 -0.2)">
     <use transform="scale(0.996264)" xlink:href="#CMR17-82"/>
     <use transform="translate(67.791102 0)scale(0.996264)" xlink:href="#CMR17-101"/>
     <use transform="translate(108.276762 0)scale(0.996264)" xlink:href="#CMMI12-33"/>
     <use transform="translate(172.595108 36.153639)scale(0.697382)" xlink:href="#CMSY10-48"/>
    </g>
   </g>
   <g id="text_2">
    <!-- $\mathrm{Im}\omega^\prime$ -->
    <defs>
     <path d="M 19.703125 60.90625 
C 19.703125 65.390625 20.90625 65.390625 28.09375 65.390625 
L 28.09375 68 
C 24.90625 67.796875 19.796875 67.796875 16.40625 67.796875 
C 13 67.796875 7.90625 67.796875 4.703125 68 
L 4.703125 65.390625 
C 11.90625 65.390625 13.09375 65.390625 13.09375 60.90625 
L 13.09375 7.078125 
C 13.09375 2.59375 11.90625 2.59375 4.703125 2.59375 
L 4.703125 0 
C 7.90625 0.1875 13 0.1875 16.40625 0.1875 
C 19.796875 0.1875 24.90625 0.1875 28.09375 0 
L 28.09375 2.59375 
C 20.90625 2.59375 19.703125 2.59375 19.703125 7.078125 
z
" id="CMR17-73"/>
     <path d="M 67.59375 30.53125 
C 67.59375 35.5625 66.703125 44 54.796875 44 
C 48 44 43.296875 39.375 41.5 33.953125 
L 41.40625 33.953125 
C 40.203125 42.1875 34.296875 44 28.703125 44 
C 20.796875 44 16.703125 37.875 15.203125 33.84375 
L 15.09375 33.84375 
L 15.09375 44 
L 3.296875 42.890625 
L 3.296875 40.28125 
C 9.203125 40.28125 10.09375 39.6875 10.09375 34.859375 
L 10.09375 6.921875 
C 10.09375 3.09375 9.703125 2.59375 3.296875 2.59375 
L 3.296875 0 
C 5.703125 0.1875 10.09375 0.1875 12.703125 0.1875 
C 15.296875 0.1875 19.796875 0.1875 22.203125 0 
L 22.203125 2.59375 
C 15.796875 2.59375 15.40625 3 15.40625 6.921875 
L 15.40625 26.21875 
C 15.40625 35.453125 21 42.390625 28 42.390625 
C 35.40625 42.390625 36.203125 35.765625 36.203125 30.9375 
L 36.203125 6.921875 
C 36.203125 3.09375 35.796875 2.59375 29.40625 2.59375 
L 29.40625 0 
C 31.796875 0.1875 36.203125 0.1875 38.796875 0.1875 
C 41.40625 0.1875 45.90625 0.1875 48.296875 0 
L 48.296875 2.59375 
C 41.90625 2.59375 41.5 3 41.5 6.921875 
L 41.5 26.21875 
C 41.5 35.453125 47.09375 42.390625 54.09375 42.390625 
C 61.5 42.390625 62.296875 35.765625 62.296875 30.9375 
L 62.296875 6.921875 
C 62.296875 3.09375 61.90625 2.59375 55.5 2.59375 
L 55.5 0 
C 57.90625 0.1875 62.296875 0.1875 64.90625 0.1875 
C 67.5 0.1875 72 0.1875 74.40625 0 
L 74.40625 2.59375 
C 68 2.59375 67.59375 3 67.59375 6.921875 
z
" id="CMR17-109"/>
    </defs>
    <g transform="translate(270.327273 39.898286)scale(0.2 -0.2)">
     <use transform="scale(0.996264)" xlink:href="#CMR17-73"/>
     <use transform="translate(32.638409 0)scale(0.996264)" xlink:href="#CMR17-109"/>
     <use transform="translate(109.557999 0)scale(0.996264)" xlink:href="#CMMI12-33"/>
     <use transform="translate(173.876345 36.153639)scale(0.697382)" xlink:href="#CMSY10-48"/>
    </g>
   </g>
   <g id="text_3">
    <!-- $\omega$ -->
    <g transform="translate(199.309091 109.789714)scale(0.2 -0.2)">
     <use transform="scale(0.996264)" xlink:href="#CMMI12-33"/>
    </g>
   </g>
   <g id="text_4">
    <!-- Poolus punktis $\omega^\prime=0$ puudub -->
    <defs>
     <path d="M 19.796875 32 
L 35.796875 32 
C 48.703125 32 58.09375 40.359375 58.09375 49.796875 
C 58.09375 59.234375 48.90625 68 35.796875 68 
L 5.203125 68 
L 5.203125 65.390625 
C 12.09375 65.390625 13.203125 65.390625 13.203125 60.921875 
L 13.203125 7.078125 
C 13.203125 2.59375 12.09375 2.59375 5.203125 2.59375 
L 5.203125 0 
C 8.09375 0.1875 13.40625 0.1875 16.5 0.1875 
C 19.59375 0.1875 24.90625 0.1875 27.796875 0 
L 27.796875 2.59375 
C 20.90625 2.59375 19.796875 2.59375 19.796875 7.078125 
z
M 19.59375 34.09375 
L 19.59375 61.515625 
C 19.59375 64.890625 19.796875 65.390625 23.796875 65.390625 
L 33.90625 65.390625 
C 46.796875 65.390625 50.5 58.046875 50.5 49.796875 
C 50.5 40.75 46.09375 34.09375 33.90625 34.09375 
z
" id="CMR17-80"/>
     <path d="M 43.09375 21.1875 
C 43.09375 34 33.796875 44 22.90625 44 
C 12 44 2.703125 34 2.703125 21.1875 
C 2.703125 8.59375 12 -1 22.90625 -1 
C 33.796875 -1 43.09375 8.59375 43.09375 21.1875 
z
M 22.90625 0.796875 
C 18.203125 0.796875 14.203125 3.59375 11.90625 7.5 
C 9.40625 12 9.09375 17.59375 9.09375 22 
C 9.09375 26.1875 9.296875 31.390625 11.90625 35.890625 
C 13.90625 39.1875 17.796875 42.390625 22.90625 42.390625 
C 27.40625 42.390625 31.203125 39.890625 33.59375 36.390625 
C 36.703125 31.6875 36.703125 25.09375 36.703125 22 
C 36.703125 18.09375 36.5 12.09375 33.796875 7.296875 
C 31 2.6875 26.703125 0.796875 22.90625 0.796875 
z
" id="CMR17-111"/>
     <path d="M 15.296875 69 
L 3.40625 67.890625 
L 3.40625 65.296875 
C 9.296875 65.296875 10.203125 64.703125 10.203125 59.921875 
L 10.203125 6.859375 
C 10.203125 3.09375 9.796875 2.59375 3.40625 2.59375 
L 3.40625 0 
C 5.796875 0.1875 10.203125 0.1875 12.703125 0.1875 
C 15.296875 0.1875 19.703125 0.1875 22.09375 0 
L 22.09375 2.59375 
C 15.703125 2.59375 15.296875 2.984375 15.296875 6.859375 
z
" id="CMR17-108"/>
     <path d="M 29.40625 42.890625 
L 29.40625 40.296875 
C 35.296875 40.296875 36.203125 39.6875 36.203125 34.828125 
L 36.203125 16.453125 
C 36.203125 7.96875 31.703125 0.59375 24.296875 0.59375 
C 16.09375 0.59375 15.40625 5.546875 15.40625 10.796875 
L 15.40625 44 
L 3.296875 42.890625 
L 3.296875 40.296875 
C 7.296875 40.296875 10 40.296875 10.09375 36.25 
L 10.09375 16.859375 
C 10.09375 10.09375 10.09375 5.75 12.703125 2.921875 
C 14 1.609375 16.5 -1 23.703125 -1 
C 32.203125 -1 35.5 6.25 36.296875 8.375 
L 36.40625 8.375 
L 36.40625 -1 
L 48.296875 -0.203125 
L 48.296875 2.40625 
C 42.40625 2.40625 41.5 3.015625 41.5 7.859375 
L 41.5 44 
z
" id="CMR17-117"/>
     <path d="M 30.90625 42 
C 30.90625 43.796875 30.796875 43.890625 30.203125 43.890625 
C 29.796875 43.890625 29.703125 43.796875 28.5 42.296875 
C 28.203125 41.890625 27.296875 40.890625 27 40.5 
C 23.796875 43.890625 19.296875 44 17.59375 44 
C 6.5 44 2.5 38.1875 2.5 32.390625 
C 2.5 23.390625 12.703125 21.296875 15.59375 20.6875 
C 21.90625 19.390625 24.09375 19 26.203125 17.1875 
C 27.5 16 29.703125 13.796875 29.703125 10.1875 
C 29.703125 6 27.296875 0.59375 18.09375 0.59375 
C 9.40625 0.59375 6.296875 7.1875 4.5 16 
C 4.203125 17.390625 4.203125 17.5 3.40625 17.5 
C 2.59375 17.5 2.5 17.390625 2.5 15.390625 
L 2.5 1 
C 2.5 -0.8125 2.59375 -0.90625 3.203125 -0.90625 
C 3.703125 -0.90625 3.796875 -0.8125 4.296875 0 
C 4.90625 0.890625 6.40625 3.296875 7 4.296875 
C 9 1.59375 12.5 -1 18.09375 -1 
C 28 -1 33.296875 4.390625 33.296875 12.1875 
C 33.296875 17.296875 30.59375 20 29.296875 21.1875 
C 26.296875 24.296875 22.796875 25 18.59375 25.796875 
C 13.09375 27 6.09375 28.390625 6.09375 34.5 
C 6.09375 37.09375 7.5 42.59375 17.59375 42.59375 
C 28.296875 42.59375 28.90625 32.59375 29.09375 29.390625 
C 29.203125 28.890625 29.703125 28.796875 30 28.796875 
C 30.90625 28.796875 30.90625 29.09375 30.90625 30.796875 
z
" id="CMR17-115"/>
     <path d="M 22 -17.40625 
C 15.59375 -17.40625 15.203125 -17 15.203125 -13.03125 
L 15.203125 5.9375 
C 18.09375 1.703125 22.296875 -1 27.59375 -1 
C 37.59375 -1 47.703125 7.859375 47.703125 21.59375 
C 47.703125 34.3125 39 44 28.703125 44 
C 22.703125 44 17.796875 40.671875 15 36.640625 
L 15 44 
L 3.09375 42.890625 
L 3.09375 40.265625 
C 9 40.265625 9.90625 39.671875 9.90625 34.8125 
L 9.90625 -13.03125 
C 9.90625 -16.890625 9.5 -17.40625 3.09375 -17.40625 
L 3.09375 -20 
C 5.5 -19.8125 9.90625 -19.8125 12.5 -19.8125 
C 15.09375 -19.8125 19.59375 -19.8125 22 -20 
z
M 15.203125 31.484375 
C 15.203125 32.90625 15.203125 35.015625 19.09375 38.765625 
C 19.59375 39.15625 23 42.1875 28 42.1875 
C 35.296875 42.1875 41.296875 33 41.296875 21.5 
C 41.296875 9.984375 34.90625 0.59375 27 0.59375 
C 23.40625 0.59375 19.5 2.3125 16.5 7.046875 
C 15.203125 9.28125 15.203125 9.875 15.203125 11.5 
z
" id="CMR17-112"/>
     <path d="M 41.5 30.53125 
C 41.5 35.65625 40.5 44 28.703125 44 
C 20.796875 44 16.703125 37.875 15.203125 33.84375 
L 15.09375 33.84375 
L 15.09375 44 
L 3.296875 42.890625 
L 3.296875 40.28125 
C 9.203125 40.28125 10.09375 39.6875 10.09375 34.859375 
L 10.09375 6.921875 
C 10.09375 3.09375 9.703125 2.59375 3.296875 2.59375 
L 3.296875 0 
C 5.703125 0.1875 10.09375 0.1875 12.703125 0.1875 
C 15.296875 0.1875 19.796875 0.1875 22.203125 0 
L 22.203125 2.59375 
C 15.796875 2.59375 15.40625 3 15.40625 6.921875 
L 15.40625 26.21875 
C 15.40625 35.453125 21 42.390625 28 42.390625 
C 35.40625 42.390625 36.203125 35.765625 36.203125 30.9375 
L 36.203125 6.921875 
C 36.203125 3.09375 35.796875 2.59375 29.40625 2.59375 
L 29.40625 0 
C 31.796875 0.1875 36.203125 0.1875 38.796875 0.1875 
C 41.40625 0.1875 45.90625 0.1875 48.296875 0 
L 48.296875 2.59375 
C 41.90625 2.59375 41.5 3 41.5 6.921875 
z
" id="CMR17-110"/>
     <path d="M 26.09375 26.234375 
C 26 26.4375 25.5 27.03125 25.5 27.328125 
C 25.5 27.53125 32.59375 33.984375 33.5 34.78125 
C 39.203125 39.5625 42.796875 40.046875 45.40625 40.15625 
L 45.40625 42.734375 
C 44.796875 42.734375 44.59375 42.734375 44.5 42.640625 
L 39.59375 42.53125 
C 36.796875 42.53125 32.5 42.53125 29.796875 42.734375 
L 29.796875 40.15625 
C 31.203125 40.046875 32.203125 39.265625 32.203125 37.859375 
C 32.203125 35.875 30.203125 33.984375 30.09375 33.984375 
L 15 20.28125 
L 15 69 
L 3.09375 67.890625 
L 3.09375 65.296875 
C 9 65.296875 9.90625 64.703125 9.90625 59.921875 
L 9.90625 6.859375 
C 9.90625 3.09375 9.5 2.59375 3.09375 2.59375 
L 3.09375 0 
C 5.5 0.1875 9.90625 0.1875 12.40625 0.1875 
C 14.90625 0.1875 19.296875 0.1875 21.703125 0 
L 21.703125 2.59375 
C 15.296875 2.59375 14.90625 2.984375 14.90625 6.859375 
L 14.90625 17.796875 
L 21.796875 24.0625 
L 31.90625 9.15625 
C 33.09375 7.359375 34.09375 5.96875 34.09375 4.671875 
C 34.09375 2.890625 32.296875 2.59375 31.09375 2.59375 
L 31.09375 0 
C 33.5 0.1875 37.796875 0.1875 40.296875 0.1875 
C 42.09375 0.1875 45.796875 0.09375 47.5 0 
L 47.5 2.59375 
C 42.796875 2.59375 41.703125 3.484375 38.703125 7.859375 
z
" id="CMR17-107"/>
     <path d="M 15.09375 40.390625 
L 29.09375 40.390625 
L 29.09375 43 
L 15.09375 43 
L 15.09375 62 
L 13.296875 62 
C 13.09375 51.4375 9.59375 42.1875 1.09375 41.984375 
L 1.09375 40.390625 
L 9.796875 40.390625 
L 9.796875 12.15625 
C 9.796875 10.234375 9.796875 -1 21.40625 -1 
C 27.296875 -1 30.703125 4.8125 30.703125 12.25 
L 30.703125 17.984375 
L 28.90625 17.984375 
L 28.90625 12.34375 
C 28.90625 5.421875 26.203125 0.796875 22 0.796875 
C 19.09375 0.796875 15.09375 2.796875 15.09375 11.953125 
z
" id="CMR17-116"/>
     <path d="M 15.5 61.890625 
C 15.5 64.09375 13.703125 66 11.40625 66 
C 9.203125 66 7.296875 64.1875 7.296875 61.890625 
C 7.296875 59.6875 9.09375 57.796875 11.40625 57.796875 
C 13.59375 57.796875 15.5 59.59375 15.5 61.890625 
z
M 3.796875 42.890625 
L 3.796875 40.296875 
C 9.40625 40.296875 10.203125 39.6875 10.203125 34.859375 
L 10.203125 6.921875 
C 10.203125 3.09375 9.796875 2.59375 3.40625 2.59375 
L 3.40625 0 
C 5.796875 0.1875 10.09375 0.1875 12.59375 0.1875 
C 15 0.1875 19.09375 0.1875 21.40625 0 
L 21.40625 2.59375 
C 15.5 2.59375 15.296875 3.203125 15.296875 6.8125 
L 15.296875 44 
z
" id="CMR17-105"/>
     <path d="M 64.296875 32 
C 65.796875 32 67.296875 32 67.296875 33.6875 
C 67.296875 35.5 65.59375 35.5 63.90625 35.5 
L 8 35.5 
C 6.296875 35.5 4.59375 35.5 4.59375 33.6875 
C 4.59375 32 6.09375 32 7.59375 32 
z
M 63.90625 14.484375 
C 65.59375 14.484375 67.296875 14.484375 67.296875 16.296875 
C 67.296875 18 65.796875 18 64.296875 18 
L 7.59375 18 
C 6.09375 18 4.59375 18 4.59375 16.296875 
C 4.59375 14.484375 6.296875 14.484375 8 14.484375 
z
" id="CMR17-61"/>
     <path d="M 42 31.84375 
C 42 37.96875 41.90625 48.421875 37.703125 56.453125 
C 34 63.484375 28.09375 66 22.90625 66 
C 18.09375 66 12 63.78125 8.203125 56.5625 
C 4.203125 49.015625 3.796875 39.671875 3.796875 31.84375 
C 3.796875 26.109375 3.90625 17.375 7 9.734375 
C 11.296875 -0.609375 19 -2 22.90625 -2 
C 27.5 -2 34.5 -0.109375 38.59375 9.4375 
C 41.59375 16.375 42 24.5 42 31.84375 
z
M 22.90625 -0.40625 
C 16.5 -0.40625 12.703125 5.125 11.296875 12.75 
C 10.203125 18.6875 10.203125 27.328125 10.203125 32.953125 
C 10.203125 40.6875 10.203125 47.109375 11.5 53.234375 
C 13.40625 61.78125 19 64.390625 22.90625 64.390625 
C 27 64.390625 32.296875 61.671875 34.203125 53.4375 
C 35.5 47.71875 35.59375 40.984375 35.59375 32.953125 
C 35.59375 26.421875 35.59375 18.375 34.40625 12.453125 
C 32.296875 1.5 26.40625 -0.40625 22.90625 -0.40625 
z
" id="CMR17-48"/>
     <path d="M 29.203125 67.890625 
L 29.203125 65.296875 
C 35.09375 65.296875 36 64.703125 36 60.046875 
L 36 37.046875 
C 35.59375 37.546875 31.5 44 23.40625 44 
C 13.203125 44 3.296875 34.8125 3.296875 21.5 
C 3.296875 8.265625 12.59375 -1 22.40625 -1 
C 30.90625 -1 35.296875 5.640625 35.796875 6.34375 
L 35.796875 -1 
L 47.90625 -0.203125 
L 47.90625 2.40625 
C 42 2.40625 41.09375 3.015625 41.09375 7.859375 
L 41.09375 69 
z
M 35.796875 11.90625 
C 35.796875 8.875 34 6.140625 31.703125 4.125 
C 28.296875 1.09375 24.90625 0.59375 23 0.59375 
C 20.09375 0.59375 9.703125 2.109375 9.703125 21.390625 
C 9.703125 41.1875 21.296875 42.390625 23.90625 42.390625 
C 28.5 42.390625 32.203125 39.765625 34.5 36.140625 
C 35.796875 34.015625 35.796875 33.703125 35.796875 31.890625 
z
" id="CMR17-100"/>
     <path d="M 15 69 
L 3.09375 67.890625 
L 3.09375 65.296875 
C 9 65.296875 9.90625 64.703125 9.90625 60.046875 
L 9.90625 -0.203125 
L 11.703125 -0.203125 
L 14.59375 6.953125 
C 17.5 2.203125 21.796875 -1 27.59375 -1 
C 37.59375 -1 47.703125 7.859375 47.703125 21.59375 
C 47.703125 34.515625 38.703125 44 28.59375 44 
C 22.40625 44 18 40.671875 15 36.734375 
z
M 15.203125 31.59375 
C 15.203125 33.40625 15.203125 33.703125 16.59375 35.828125 
C 20.5 41.890625 26.09375 42.390625 28 42.390625 
C 31 42.390625 41.296875 40.78125 41.296875 21.6875 
C 41.296875 1.703125 29.5 0.59375 27.09375 0.59375 
C 24 0.59375 19.5 1.796875 16.296875 7.65625 
C 15.203125 9.578125 15.203125 9.78125 15.203125 11.59375 
z
" id="CMR17-98"/>
    </defs>
    <g transform="translate(114.21476 19.92)scale(0.24 -0.24)">
     <use transform="scale(0.996264)" xlink:href="#CMR17-80"/>
     <use transform="translate(59.983847 0)scale(0.996264)" xlink:href="#CMR17-111"/>
     <use transform="translate(108.276762 0)scale(0.996264)" xlink:href="#CMR17-111"/>
     <use transform="translate(153.96724 0)scale(0.996264)" xlink:href="#CMR17-108"/>
     <use transform="translate(178.838298 0)scale(0.996264)" xlink:href="#CMR17-117"/>
     <use transform="translate(229.733668 0)scale(0.996264)" xlink:href="#CMR17-115"/>
     <use transform="translate(295.610972 0)scale(0.996264)" xlink:href="#CMR17-112"/>
     <use transform="translate(346.506342 0)scale(0.996264)" xlink:href="#CMR17-117"/>
     <use transform="translate(397.401711 0)scale(0.996264)" xlink:href="#CMR17-110"/>
     <use transform="translate(448.297081 0)scale(0.996264)" xlink:href="#CMR17-107"/>
     <use transform="translate(496.589997 0)scale(0.996264)" xlink:href="#CMR17-116"/>
     <use transform="translate(531.870765 0)scale(0.996264)" xlink:href="#CMR17-105"/>
     <use transform="translate(556.741823 0)scale(0.996264)" xlink:href="#CMR17-115"/>
     <use transform="translate(622.619127 0)scale(0.996264)" xlink:href="#CMMI12-33"/>
     <use transform="translate(686.937473 36.153639)scale(0.697382)" xlink:href="#CMSY10-48"/>
     <use transform="translate(734.287575 0)scale(0.996264)" xlink:href="#CMR17-61"/>
     <use transform="translate(833.676372 0)scale(0.996264)" xlink:href="#CMR17-48"/>
     <use transform="translate(909.442815 0)scale(0.996264)" xlink:href="#CMR17-112"/>
     <use transform="translate(960.338185 0)scale(0.996264)" xlink:href="#CMR17-117"/>
     <use transform="translate(1011.233555 0)scale(0.996264)" xlink:href="#CMR17-117"/>
     <use transform="translate(1062.128924 0)scale(0.996264)" xlink:href="#CMR17-100"/>
     <use transform="translate(1113.024294 0)scale(0.996264)" xlink:href="#CMR17-117"/>
     <use transform="translate(1163.919664 0)scale(0.996264)" xlink:href="#CMR17-98"/>
    </g>
   </g>
  </g>
  <g id="axes_2">
   <g id="PathCollection_2">
    <g clip-path="url(#pacaa3fab0b)">
     <use style="stroke:#000000;" x="569.618182" xlink:href="#mdf52f35b03" y="119.108571"/>
    </g>
   </g>
   <g id="line2d_6">
    <path clip-path="url(#pacaa3fab0b)" d="M 498.6 165.702857 
L 501.161983 142.406903 
L 503.723967 132.925923 
L 506.28595 125.766935 
L 508.847934 119.829633 
L 511.409917 114.685683 
L 513.971901 110.114407 
L 516.533884 105.984149 
L 519.095868 102.208788 
L 521.657851 98.72828 
L 524.219835 95.498758 
L 526.781818 92.487001 
L 529.343802 89.667128 
L 531.905785 87.018506 
L 534.467769 84.524371 
L 537.029752 82.170884 
L 539.591736 79.946464 
L 542.153719 77.841308 
L 544.715702 75.847033 
L 547.277686 73.956409 
L 549.839669 72.163149 
L 552.401653 70.461754 
L 554.963636 68.847383 
L 557.52562 67.315752 
L 560.087603 65.863053 
L 562.649587 64.485887 
L 565.21157 63.181211 
L 567.773554 61.946289 
L 570.335537 60.778659 
L 572.897521 59.676098 
L 575.459504 58.636595 
L 578.021488 57.65833 
L 580.583471 56.739655 
L 583.145455 55.879072 
L 585.707438 55.075228 
L 588.269421 54.326893 
L 590.831405 53.632955 
L 593.393388 52.992409 
L 595.955372 52.404351 
L 598.517355 51.867966 
L 601.079339 51.382527 
L 603.641322 50.947388 
L 606.203306 50.561978 
L 608.765289 50.2258 
L 611.327273 49.938424 
L 613.889256 49.699487 
L 616.45124 49.508692 
L 619.013223 49.365801 
L 621.575207 49.270638 
L 624.13719 49.223086 
L 626.699174 49.223086 
L 629.261157 49.270638 
L 631.82314 49.365801 
L 634.385124 49.508692 
L 636.947107 49.699487 
L 639.509091 49.938424 
L 642.071074 50.2258 
L 644.633058 50.561978 
L 647.195041 50.947388 
L 649.757025 51.382527 
L 652.319008 51.867966 
L 654.880992 52.404351 
L 657.442975 52.992409 
L 660.004959 53.632955 
L 662.566942 54.326893 
L 665.128926 55.075228 
L 667.690909 55.879072 
L 670.252893 56.739655 
L 672.814876 57.65833 
L 675.37686 58.636595 
L 677.938843 59.676098 
L 680.500826 60.778659 
L 683.06281 61.946289 
L 685.624793 63.181211 
L 688.186777 64.485887 
L 690.74876 65.863053 
L 693.310744 67.315752 
L 695.872727 68.847383 
L 698.434711 70.461754 
L 700.996694 72.163149 
L 703.558678 73.956409 
L 706.120661 75.847033 
L 708.682645 77.841308 
L 711.244628 79.946464 
L 713.806612 82.170884 
L 716.368595 84.524371 
L 718.930579 87.018506 
L 721.492562 89.667128 
L 724.054545 92.487001 
L 726.616529 95.498758 
L 729.178512 98.72828 
L 731.740496 102.208788 
L 734.302479 105.984149 
L 736.864463 110.114407 
L 739.426446 114.685683 
L 741.98843 119.829633 
L 744.550413 125.766935 
L 747.112397 132.925923 
L 749.67438 142.406903 
L 752.236364 165.702857 
" style="fill:none;stroke:#0000ff;stroke-linecap:square;stroke-width:3;"/>
   </g>
   <g id="line2d_7">
    <path clip-path="url(#pacaa3fab0b)" d="M 615.272727 165.702857 
L 615.477686 163.839181 
L 615.682645 163.080702 
L 615.887603 162.507983 
L 616.092562 162.032999 
L 616.297521 161.621483 
L 616.502479 161.255781 
L 616.707438 160.925361 
L 616.912397 160.623332 
L 617.117355 160.344891 
L 617.322314 160.086529 
L 617.527273 159.845589 
L 617.732231 159.619999 
L 617.93719 159.408109 
L 618.142149 159.208578 
L 618.347107 159.020299 
L 618.552066 158.842346 
L 618.757025 158.673933 
L 618.961983 158.514391 
L 619.166942 158.363141 
L 619.371901 158.21968 
L 619.57686 158.083569 
L 619.781818 157.954419 
L 619.986777 157.831889 
L 620.191736 157.715673 
L 620.396694 157.6055 
L 620.601653 157.501125 
L 620.806612 157.402332 
L 621.01157 157.308921 
L 621.216529 157.220716 
L 621.421488 157.137556 
L 621.626446 157.059295 
L 621.831405 156.985801 
L 622.036364 156.916954 
L 622.241322 156.852647 
L 622.446281 156.79278 
L 622.65124 156.737265 
L 622.856198 156.686021 
L 623.061157 156.638977 
L 623.266116 156.596066 
L 623.471074 156.557231 
L 623.676033 156.52242 
L 623.880992 156.491587 
L 624.08595 156.464693 
L 624.290909 156.441702 
L 624.495868 156.422588 
L 624.700826 156.407324 
L 624.905785 156.395893 
L 625.110744 156.38828 
L 625.315702 156.384475 
L 625.520661 156.384475 
L 625.72562 156.38828 
L 625.930579 156.395893 
L 626.135537 156.407324 
L 626.340496 156.422588 
L 626.545455 156.441702 
L 626.750413 156.464693 
L 626.955372 156.491587 
L 627.160331 156.52242 
L 627.365289 156.557231 
L 627.570248 156.596066 
L 627.775207 156.638977 
L 627.980165 156.686021 
L 628.185124 156.737265 
L 628.390083 156.79278 
L 628.595041 156.852647 
L 628.8 156.916954 
L 629.004959 156.985801 
L 629.209917 157.059295 
L 629.414876 157.137556 
L 629.619835 157.220716 
L 629.824793 157.308921 
L 630.029752 157.402332 
L 630.234711 157.501125 
L 630.439669 157.6055 
L 630.644628 157.715673 
L 630.849587 157.831889 
L 631.054545 157.954419 
L 631.259504 158.083569 
L 631.464463 158.21968 
L 631.669421 158.363141 
L 631.87438 158.514391 
L 632.079339 158.673933 
L 632.284298 158.842346 
L 632.489256 159.020299 
L 632.694215 159.208578 
L 632.899174 159.408109 
L 633.104132 159.619999 
L 633.309091 159.845589 
L 633.51405 160.086529 
L 633.719008 160.344891 
L 633.923967 160.623332 
L 634.128926 160.925361 
L 634.333884 161.255781 
L 634.538843 161.621483 
L 634.743802 162.032999 
L 634.94876 162.507983 
L 635.153719 163.080702 
L 635.358678 163.839181 
L 635.563636 165.702857 
" style="fill:none;stroke:#0000ff;stroke-linecap:square;stroke-width:3;"/>
   </g>
   <g id="line2d_8">
    <path clip-path="url(#pacaa3fab0b)" d="M 498.6 165.702857 
L 615.272727 165.702857 
" style="fill:none;stroke:#0000ff;stroke-linecap:square;stroke-width:3;"/>
   </g>
   <g id="line2d_9">
    <path clip-path="url(#pacaa3fab0b)" d="M 752.236364 165.702857 
L 635.563636 165.702857 
" style="fill:none;stroke:#0000ff;stroke-linecap:square;stroke-width:3;"/>
   </g>
   <g id="line2d_10">
    <path clip-path="url(#pacaa3fab0b)" d="M 681.218182 156.384 
L 691.363636 165.702857 
L 681.218182 175.021714 
" style="fill:none;stroke:#0000ff;stroke-linecap:square;stroke-width:3;"/>
   </g>
   <g id="line2d_11">
    <path clip-path="url(#pacaa3fab0b)" d="M 473.236364 165.702857 
L 777.6 165.702857 
" style="fill:none;stroke:#000000;stroke-dasharray:5.55,2.4;stroke-dashoffset:0;stroke-width:1.5;"/>
   </g>
   <g id="line2d_12">
    <path clip-path="url(#pacaa3fab0b)" d="M 625.418182 189 
L 625.418182 25.92 
" style="fill:none;stroke:#000000;stroke-dasharray:5.55,2.4;stroke-dashoffset:0;stroke-width:1.5;"/>
   </g>
   <g id="text_5">
    <!-- $\mathrm{Re}\omega^\prime$ -->
    <g transform="translate(762.381818 156.384)scale(0.2 -0.2)">
     <use transform="scale(0.996264)" xlink:href="#CMR17-82"/>
     <use transform="translate(67.791102 0)scale(0.996264)" xlink:href="#CMR17-101"/>
     <use transform="translate(108.276762 0)scale(0.996264)" xlink:href="#CMMI12-33"/>
     <use transform="translate(172.595108 36.153639)scale(0.697382)" xlink:href="#CMSY10-48"/>
    </g>
   </g>
   <g id="text_6">
    <!-- $\mathrm{Im}\omega^\prime$ -->
    <g transform="translate(635.563636 39.898286)scale(0.2 -0.2)">
     <use transform="scale(0.996264)" xlink:href="#CMR17-73"/>
     <use transform="translate(32.638409 0)scale(0.996264)" xlink:href="#CMR17-109"/>
     <use transform="translate(109.557999 0)scale(0.996264)" xlink:href="#CMMI12-33"/>
     <use transform="translate(173.876345 36.153639)scale(0.697382)" xlink:href="#CMSY10-48"/>
    </g>
   </g>
   <g id="text_7">
    <!-- $\omega$ -->
    <g transform="translate(564.545455 109.789714)scale(0.2 -0.2)">
     <use transform="scale(0.996264)" xlink:href="#CMMI12-33"/>
    </g>
   </g>
   <g id="text_8">
    <!-- Poolus punktis $\omega^\prime=0$ olemas -->
    <defs>
     <path d="M 36 25.875 
C 36 32 36 35.546875 31.796875 39.59375 
C 28.09375 42.984375 23.796875 44 20.40625 44 
C 12.5 44 6.796875 37.625 6.796875 30.890625 
C 6.796875 27.1875 9.796875 27 10.40625 27 
C 11.703125 27 14 27.796875 14 30.59375 
C 14 33.09375 12.09375 34.1875 10.40625 34.1875 
C 10 34.1875 9.5 34.09375 9.203125 34 
C 11.296875 40.53125 16.703125 42.390625 20.203125 42.390625 
C 25.203125 42.390625 30.703125 37.828125 30.703125 29.296875 
L 30.703125 25.5 
C 24.796875 25.296875 17.703125 24.5 12.09375 21.453125 
C 5.796875 17.921875 4 12.84375 4 9 
C 4 1.203125 13 -1 18.296875 -1 
C 23.796875 -1 28.90625 2.109375 31.09375 7.890625 
C 31.296875 3.421875 34.09375 -0.609375 38.5 -0.609375 
C 40.59375 -0.609375 45.90625 0.796875 45.90625 8.796875 
L 45.90625 14.46875 
L 44.09375 14.46875 
L 44.09375 8.703125 
C 44.09375 2.515625 41.40625 1.703125 40.09375 1.703125 
C 36 1.703125 36 6.96875 36 11.4375 
z
M 30.703125 13.859375 
C 30.703125 5.046875 24.5 0.59375 19 0.59375 
C 14 0.59375 10.09375 4.34375 10.09375 9 
C 10.09375 12.046875 11.40625 17.40625 17.203125 20.65625 
C 22 23.390625 27.5 23.796875 30.703125 24 
z
" id="CMR17-97"/>
    </defs>
    <g transform="translate(483.760768 19.92)scale(0.24 -0.24)">
     <use transform="scale(0.996264)" xlink:href="#CMR17-80"/>
     <use transform="translate(59.983847 0)scale(0.996264)" xlink:href="#CMR17-111"/>
     <use transform="translate(108.276762 0)scale(0.996264)" xlink:href="#CMR17-111"/>
     <use transform="translate(153.96724 0)scale(0.996264)" xlink:href="#CMR17-108"/>
     <use transform="translate(178.838298 0)scale(0.996264)" xlink:href="#CMR17-117"/>
     <use transform="translate(229.733668 0)scale(0.996264)" xlink:href="#CMR17-115"/>
     <use transform="translate(295.610972 0)scale(0.996264)" xlink:href="#CMR17-112"/>
     <use transform="translate(346.506342 0)scale(0.996264)" xlink:href="#CMR17-117"/>
     <use transform="translate(397.401711 0)scale(0.996264)" xlink:href="#CMR17-110"/>
     <use transform="translate(448.297081 0)scale(0.996264)" xlink:href="#CMR17-107"/>
     <use transform="translate(496.589997 0)scale(0.996264)" xlink:href="#CMR17-116"/>
     <use transform="translate(531.870765 0)scale(0.996264)" xlink:href="#CMR17-105"/>
     <use transform="translate(556.741823 0)scale(0.996264)" xlink:href="#CMR17-115"/>
     <use transform="translate(622.619127 0)scale(0.996264)" xlink:href="#CMMI12-33"/>
     <use transform="translate(686.937473 36.153639)scale(0.697382)" xlink:href="#CMSY10-48"/>
     <use transform="translate(734.287575 0)scale(0.996264)" xlink:href="#CMR17-61"/>
     <use transform="translate(833.676372 0)scale(0.996264)" xlink:href="#CMR17-48"/>
     <use transform="translate(909.442815 0)scale(0.996264)" xlink:href="#CMR17-111"/>
     <use transform="translate(955.133292 0)scale(0.996264)" xlink:href="#CMR17-108"/>
     <use transform="translate(980.004351 0)scale(0.996264)" xlink:href="#CMR17-101"/>
     <use transform="translate(1020.490011 0)scale(0.996264)" xlink:href="#CMR17-109"/>
     <use transform="translate(1097.409601 0)scale(0.996264)" xlink:href="#CMR17-97"/>
     <use transform="translate(1143.100078 0)scale(0.996264)" xlink:href="#CMR17-115"/>
    </g>
   </g>
  </g>
 </g>
 <defs>
  <clipPath id="p2c23d962ec">
   <rect height="163.08" width="304.363636" x="108" y="25.92"/>
  </clipPath>
  <clipPath id="pacaa3fab0b">
   <rect height="163.08" width="304.363636" x="473.236364" y="25.92"/>
  </clipPath>
 </defs>
</svg>
