<?xml version="1.0" encoding="utf-8" standalone="no"?>
<!DOCTYPE svg PUBLIC "-//W3C//DTD SVG 1.1//EN"
  "http://www.w3.org/Graphics/SVG/1.1/DTD/svg11.dtd">
<!-- Created with matplotlib (http://matplotlib.org/) -->
<svg height="288pt" version="1.1" viewBox="0 0 864 288" width="864pt" xmlns="http://www.w3.org/2000/svg" xmlns:xlink="http://www.w3.org/1999/xlink">
 <defs>
  <style type="text/css">
*{stroke-linecap:butt;stroke-linejoin:round;}
  </style>
 </defs>
 <g id="figure_1">
  <g id="patch_1">
   <path d="M 0 288 
L 864 288 
L 864 0 
L 0 0 
z
" style="fill:#ffffff;"/>
  </g>
  <g id="axes_1">
   <g id="line2d_1">
    <path clip-path="url(#pa7e4d7df44)" d="M 121.834711 44.443636 
L 124.629602 50.313522 
L 127.424493 55.946274 
L 130.219384 61.346781 
L 133.014275 66.519932 
L 135.809166 71.470617 
L 138.604057 76.203726 
L 141.398948 80.724147 
L 144.193839 85.03677 
L 146.98873 89.146485 
L 149.783621 93.05818 
L 152.578512 96.776745 
L 155.373403 100.30707 
L 158.168295 103.654044 
L 160.963186 106.822556 
L 163.758077 109.817495 
L 166.552968 112.643752 
L 169.347859 115.306214 
L 172.14275 117.809773 
L 174.937641 120.159316 
L 177.732532 122.359734 
L 180.527423 124.415915 
L 183.322314 126.33275 
L 186.117205 128.115127 
L 188.912096 129.767936 
L 191.706987 131.296066 
L 194.501878 132.704407 
L 197.296769 133.997847 
L 200.09166 135.181277 
L 202.886551 136.259586 
L 205.681443 137.237662 
L 208.476334 138.120396 
L 211.271225 138.912677 
L 214.066116 139.619394 
L 216.861007 140.245436 
L 219.655898 140.795694 
L 222.450789 141.275055 
L 225.24568 141.68841 
L 228.040571 142.040648 
L 230.835462 142.336658 
L 233.630353 142.58133 
L 236.425244 142.779553 
L 239.220135 142.936217 
L 242.015026 143.05621 
L 244.809917 143.144422 
L 247.604808 143.205743 
L 250.399699 143.245061 
L 253.194591 143.267267 
L 255.989482 143.27725 
L 258.784373 143.279898 
L 261.579264 143.280102 
L 264.374155 143.28275 
L 267.169046 143.292733 
L 269.963937 143.314939 
L 272.758828 143.354257 
L 275.553719 143.415578 
L 278.34861 143.50379 
L 281.143501 143.623783 
L 283.938392 143.780447 
L 286.733283 143.97867 
L 289.528174 144.223342 
L 292.323065 144.519352 
L 295.117956 144.87159 
L 297.912847 145.284945 
L 300.707739 145.764306 
L 303.50263 146.314564 
L 306.297521 146.940606 
L 309.092412 147.647323 
L 311.887303 148.439604 
L 314.682194 149.322338 
L 317.477085 150.300414 
L 320.271976 151.378723 
L 323.066867 152.562153 
L 325.861758 153.855593 
L 328.656649 155.263934 
L 331.45154 156.792064 
L 334.246431 158.444873 
L 337.041322 160.22725 
L 339.836213 162.144085 
L 342.631104 164.200266 
L 345.425995 166.400684 
L 348.220887 168.750227 
L 351.015778 171.253786 
L 353.810669 173.916248 
L 356.60556 176.742505 
L 359.400451 179.737444 
L 362.195342 182.905956 
L 364.990233 186.25293 
L 367.785124 189.783255 
L 370.580015 193.50182 
L 373.374906 197.413515 
L 376.169797 201.52323 
L 378.964688 205.835853 
L 381.759579 210.356274 
L 384.55447 215.089383 
L 387.349361 220.040068 
L 390.144252 225.213219 
L 392.939144 230.613726 
L 395.734035 236.246478 
L 398.528926 242.116364 
" style="fill:none;stroke:#0000ff;stroke-linecap:square;stroke-width:3;"/>
   </g>
   <g id="line2d_2">
    <path clip-path="url(#pa7e4d7df44)" d="M 108 143.28 
L 412.363636 143.28 
" style="fill:none;stroke:#000000;stroke-dasharray:5.55,2.4;stroke-dashoffset:0;stroke-width:1.5;"/>
   </g>
   <g id="line2d_3">
    <path clip-path="url(#pa7e4d7df44)" d="M 260.181818 252 
L 260.181818 34.56 
" style="fill:none;stroke:#000000;stroke-dasharray:5.55,2.4;stroke-dashoffset:0;stroke-width:1.5;"/>
   </g>
   <g id="text_1">
    <!-- tavaline $\chi_{AB}^{\prime\prime}(\omega)$ k\"aitumine -->
    <defs>
     <path d="M 15.09375 40.390625 
L 29.09375 40.390625 
L 29.09375 43 
L 15.09375 43 
L 15.09375 62 
L 13.296875 62 
C 13.09375 51.4375 9.59375 42.1875 1.09375 41.984375 
L 1.09375 40.390625 
L 9.796875 40.390625 
L 9.796875 12.15625 
C 9.796875 10.234375 9.796875 -1 21.40625 -1 
C 27.296875 -1 30.703125 4.8125 30.703125 12.25 
L 30.703125 17.984375 
L 28.90625 17.984375 
L 28.90625 12.34375 
C 28.90625 5.421875 26.203125 0.796875 22 0.796875 
C 19.09375 0.796875 15.09375 2.796875 15.09375 11.953125 
z
" id="CMR17-116"/>
     <path d="M 36 25.875 
C 36 32 36 35.546875 31.796875 39.59375 
C 28.09375 42.984375 23.796875 44 20.40625 44 
C 12.5 44 6.796875 37.625 6.796875 30.890625 
C 6.796875 27.1875 9.796875 27 10.40625 27 
C 11.703125 27 14 27.796875 14 30.59375 
C 14 33.09375 12.09375 34.1875 10.40625 34.1875 
C 10 34.1875 9.5 34.09375 9.203125 34 
C 11.296875 40.53125 16.703125 42.390625 20.203125 42.390625 
C 25.203125 42.390625 30.703125 37.828125 30.703125 29.296875 
L 30.703125 25.5 
C 24.796875 25.296875 17.703125 24.5 12.09375 21.453125 
C 5.796875 17.921875 4 12.84375 4 9 
C 4 1.203125 13 -1 18.296875 -1 
C 23.796875 -1 28.90625 2.109375 31.09375 7.890625 
C 31.296875 3.421875 34.09375 -0.609375 38.5 -0.609375 
C 40.59375 -0.609375 45.90625 0.796875 45.90625 8.796875 
L 45.90625 14.46875 
L 44.09375 14.46875 
L 44.09375 8.703125 
C 44.09375 2.515625 41.40625 1.703125 40.09375 1.703125 
C 36 1.703125 36 6.96875 36 11.4375 
z
M 30.703125 13.859375 
C 30.703125 5.046875 24.5 0.59375 19 0.59375 
C 14 0.59375 10.09375 4.34375 10.09375 9 
C 10.09375 12.046875 11.40625 17.40625 17.203125 20.65625 
C 22 23.390625 27.5 23.796875 30.703125 24 
z
" id="CMR17-97"/>
     <path d="M 39.09375 33.953125 
C 40 36.171875 41.59375 40.1875 47.40625 40.390625 
L 47.40625 43 
C 45.5 42.890625 43 42.796875 41.09375 42.796875 
C 39 42.796875 35.703125 42.796875 33.703125 43 
L 33.703125 40.390625 
C 36.203125 40.1875 37.59375 38.984375 37.59375 36.375 
C 37.59375 35.46875 37.59375 35.265625 37 33.859375 
L 26 5.921875 
L 14.09375 36.0625 
C 13.5 37.375 13.5 37.578125 13.5 37.984375 
C 13.5 40.390625 16.796875 40.390625 18.296875 40.390625 
L 18.296875 43 
C 15.90625 42.796875 11.5 42.796875 9 42.796875 
C 6.296875 42.796875 3.203125 42.796875 1 43 
L 1 40.390625 
C 4.796875 40.390625 6.90625 40.390625 8.09375 37.28125 
L 22.59375 0.6875 
C 23.203125 -0.8125 23.296875 -1 24.203125 -1 
C 25.09375 -1 25.203125 -0.8125 25.796875 0.6875 
z
" id="CMR17-118"/>
     <path d="M 15.296875 69 
L 3.40625 67.890625 
L 3.40625 65.296875 
C 9.296875 65.296875 10.203125 64.703125 10.203125 59.921875 
L 10.203125 6.859375 
C 10.203125 3.09375 9.796875 2.59375 3.40625 2.59375 
L 3.40625 0 
C 5.796875 0.1875 10.203125 0.1875 12.703125 0.1875 
C 15.296875 0.1875 19.703125 0.1875 22.09375 0 
L 22.09375 2.59375 
C 15.703125 2.59375 15.296875 2.984375 15.296875 6.859375 
z
" id="CMR17-108"/>
     <path d="M 15.5 61.890625 
C 15.5 64.09375 13.703125 66 11.40625 66 
C 9.203125 66 7.296875 64.1875 7.296875 61.890625 
C 7.296875 59.6875 9.09375 57.796875 11.40625 57.796875 
C 13.59375 57.796875 15.5 59.59375 15.5 61.890625 
z
M 3.796875 42.890625 
L 3.796875 40.296875 
C 9.40625 40.296875 10.203125 39.6875 10.203125 34.859375 
L 10.203125 6.921875 
C 10.203125 3.09375 9.796875 2.59375 3.40625 2.59375 
L 3.40625 0 
C 5.796875 0.1875 10.09375 0.1875 12.59375 0.1875 
C 15 0.1875 19.09375 0.1875 21.40625 0 
L 21.40625 2.59375 
C 15.5 2.59375 15.296875 3.203125 15.296875 6.8125 
L 15.296875 44 
z
" id="CMR17-105"/>
     <path d="M 41.5 30.53125 
C 41.5 35.65625 40.5 44 28.703125 44 
C 20.796875 44 16.703125 37.875 15.203125 33.84375 
L 15.09375 33.84375 
L 15.09375 44 
L 3.296875 42.890625 
L 3.296875 40.28125 
C 9.203125 40.28125 10.09375 39.6875 10.09375 34.859375 
L 10.09375 6.921875 
C 10.09375 3.09375 9.703125 2.59375 3.296875 2.59375 
L 3.296875 0 
C 5.703125 0.1875 10.09375 0.1875 12.703125 0.1875 
C 15.296875 0.1875 19.796875 0.1875 22.203125 0 
L 22.203125 2.59375 
C 15.796875 2.59375 15.40625 3 15.40625 6.921875 
L 15.40625 26.21875 
C 15.40625 35.453125 21 42.390625 28 42.390625 
C 35.40625 42.390625 36.203125 35.765625 36.203125 30.9375 
L 36.203125 6.921875 
C 36.203125 3.09375 35.796875 2.59375 29.40625 2.59375 
L 29.40625 0 
C 31.796875 0.1875 36.203125 0.1875 38.796875 0.1875 
C 41.40625 0.1875 45.90625 0.1875 48.296875 0 
L 48.296875 2.59375 
C 41.90625 2.59375 41.5 3 41.5 6.921875 
z
" id="CMR17-110"/>
     <path d="M 38.09375 23.484375 
C 38.5 23.890625 38.5 24.09375 38.5 25.09375 
C 38.5 35.171875 33.09375 44 21.703125 44 
C 11.09375 44 2.703125 33.984375 2.703125 21.78125 
C 2.703125 8.65625 12.203125 -1 22.796875 -1 
C 34 -1 38.40625 9.671875 38.40625 11.796875 
C 38.40625 12.5 37.796875 12.5 37.59375 12.5 
C 36.90625 12.5 36.796875 12.296875 36.40625 11.078125 
C 34.203125 4.21875 28.703125 0.796875 23.5 0.796875 
C 19.203125 0.796875 14.90625 3.21875 12.203125 7.65625 
C 9.09375 12.796875 9.09375 18.75 9.09375 23.484375 
z
M 9.203125 25 
C 9.90625 39.234375 17.59375 42.390625 21.59375 42.390625 
C 28.40625 42.390625 33 36.0625 33.09375 25 
z
" id="CMR17-101"/>
     <path d="M 33 16.171875 
C 30.296875 24.40625 30.90625 23.609375 28.40625 30.5625 
C 25.296875 39.109375 24.5 39.796875 23.09375 41.1875 
C 21.296875 42.796875 17.90625 44 14.40625 44 
C 8.796875 44 6.09375 38.8125 6.09375 37.515625 
C 6.09375 36.921875 6.59375 36.625 7.203125 36.625 
C 8 36.625 8.203125 37.125 8.296875 37.515625 
C 9.796875 41.390625 12.90625 41.984375 13.796875 41.984375 
C 16.703125 41.984375 19.5 34.84375 21.296875 30.078125 
C 23.703125 24.015625 24.90625 19.84375 27.59375 10.203125 
L 4 -16.40625 
C 3.09375 -17.5 3.09375 -17.90625 3.09375 -18 
C 3.09375 -18.8125 3.59375 -19 4 -19 
C 4.40625 -19 4.703125 -18.8125 5 -18.5 
C 7.796875 -15.71875 14 -8.359375 16.59375 -5.390625 
L 28.203125 7.71875 
C 33.09375 -7.484375 33.09375 -7.671875 34.59375 -11.359375 
C 36.203125 -15.125 38.296875 -20 46.796875 -20 
C 52.5 -20 55.09375 -14.921875 55.09375 -13.53125 
C 55.09375 -12.84375 54.5 -12.640625 54 -12.640625 
C 53.203125 -12.640625 53.09375 -13.046875 52.796875 -13.84375 
C 51.703125 -16.625 49.09375 -18 47.5 -18 
C 46.203125 -18 44.59375 -18 40.203125 -6.984375 
C 37.59375 -0.328125 35.296875 7.609375 33.59375 13.78125 
L 57.296875 40.59375 
C 58.09375 41.484375 58.203125 41.59375 58.203125 41.984375 
C 58.203125 42.6875 57.703125 43 57.203125 43 
C 56.90625 43 56.59375 43 55.59375 41.890625 
z
" id="CMMI12-31"/>
     <path d="M 25.296875 47.625 
C 25.796875 48.828125 26.203125 49.71875 26.203125 50.71875 
C 26.203125 53.59375 23.59375 56 20.5 56 
C 17.703125 56 15.90625 54.09375 15.203125 51.515625 
L 3.296875 8.078125 
C 3.296875 7.890625 2.90625 6.796875 2.90625 6.6875 
C 2.90625 5.59375 5.5 4.890625 6.296875 4.890625 
C 6.90625 4.890625 7 5.1875 7.59375 6.484375 
z
" id="CMSY10-48"/>
     <path d="M 17 11.25 
C 13.5 5.234375 10.09375 3.203125 5.296875 2.890625 
C 4.203125 2.796875 3.40625 2.796875 3.40625 1 
C 3.40625 0.390625 3.90625 0 4.59375 0 
C 6.40625 0 10.90625 0.1875 12.703125 0.1875 
C 15.59375 0.1875 18.796875 0 21.59375 0 
C 22.203125 0 23.40625 0 23.40625 1.890625 
C 23.40625 2.796875 22.59375 2.890625 22 2.890625 
C 19.703125 3.09375 17.796875 3.90625 17.796875 6.359375 
C 17.796875 7.78125 18.40625 8.90625 19.703125 11.15625 
L 27.296875 24 
L 52.796875 24 
C 52.90625 23.078125 52.90625 22.265625 53 21.34375 
C 53.296875 18.6875 54.5 8.09375 54.5 6.15625 
C 54.5 3.09375 49.40625 2.890625 47.796875 2.890625 
C 46.703125 2.890625 45.59375 2.890625 45.59375 1.09375 
C 45.59375 0 46.5 0 47.09375 0 
C 48.796875 0 50.796875 0.1875 52.5 0.1875 
L 58.203125 0.1875 
C 64.296875 0.1875 68.703125 0 68.796875 0 
C 69.5 0 70.59375 0 70.59375 1.890625 
C 70.59375 2.890625 69.703125 2.890625 68.203125 2.890625 
C 62.703125 2.890625 62.59375 3.8125 62.296875 6.875 
L 56.203125 68.796875 
C 56 70.796875 55.59375 71 54.5 71 
C 53.5 71 52.90625 70.796875 52 69.296875 
z
M 29 26.890625 
L 49.09375 59.859375 
L 52.5 26.890625 
z
" id="CMMI12-65"/>
     <path d="M 36.59375 61.171875 
C 37.5 64.890625 37.90625 65.09375 41.796875 65.09375 
L 54.796875 65.09375 
C 66.09375 65.09375 66.09375 55.421875 66.09375 54.515625 
C 66.09375 46.359375 58 36 44.796875 36 
L 30.40625 36 
z
M 53.5 35.1875 
C 64.40625 37.203125 74.296875 44.859375 74.296875 54.109375 
C 74.296875 61.96875 67.40625 68 56.09375 68 
L 24 68 
C 22.09375 68 21.203125 68 21.203125 66.09375 
C 21.203125 65.09375 22.09375 65.09375 23.59375 65.09375 
C 29.703125 65.09375 29.703125 64.28125 29.703125 63.171875 
C 29.703125 62.984375 29.703125 62.375 29.296875 60.859375 
L 15.796875 7.328125 
C 14.90625 3.875 14.703125 2.890625 7.703125 2.890625 
C 5.796875 2.890625 4.796875 2.890625 4.796875 1.09375 
C 4.796875 0 5.40625 0 7.40625 0 
L 41.703125 0 
C 57 0 68.796875 11.453125 68.796875 21.390625 
C 68.796875 29.46875 61.59375 34.390625 53.5 35.1875 
z
M 39.296875 2.890625 
L 25.796875 2.890625 
C 24.40625 2.890625 24.203125 2.890625 23.59375 2.984375 
C 22.5 3.09375 22.40625 3.28125 22.40625 4.078125 
C 22.40625 4.765625 22.59375 5.359375 22.796875 6.234375 
L 29.796875 34 
L 48.59375 34 
C 60.40625 34 60.40625 23.171875 60.40625 22.375 
C 60.40625 12.9375 51.703125 2.890625 39.296875 2.890625 
z
" id="CMMI12-66"/>
     <path d="M 30.59375 -24.40625 
C 30.59375 -24.3125 30.59375 -24.109375 30.296875 -23.8125 
C 25.703125 -19.109375 13.40625 -6.296875 13.40625 24.9375 
C 13.40625 56.171875 25.5 68.875 30.40625 73.890625 
C 30.40625 73.984375 30.59375 74.1875 30.59375 74.484375 
C 30.59375 74.796875 30.296875 75 29.90625 75 
C 28.796875 75 20.296875 67.578125 15.40625 56.5625 
C 10.40625 45.453125 9 34.65625 9 25.046875 
C 9 17.828125 9.703125 5.625 15.703125 -7.296875 
C 20.5 -17.703125 28.703125 -25 29.90625 -25 
C 30.40625 -25 30.59375 -24.8125 30.59375 -24.40625 
z
" id="CMR17-40"/>
     <path d="M 59.40625 37.59375 
C 59.40625 40.5 58.59375 44.1875 55.09375 44.1875 
C 53.09375 44.1875 50.796875 41.6875 50.796875 39.6875 
C 50.796875 38.796875 51.203125 38.1875 52 37.296875 
C 53.5 35.59375 55.40625 32.890625 55.40625 28.1875 
C 55.40625 24.59375 53.203125 18.890625 51.59375 15.796875 
C 48.796875 10.296875 44.203125 5.59375 39 5.59375 
C 32.703125 5.59375 30.296875 9.59375 29.203125 15.1875 
C 30.296875 17.796875 32.59375 24.296875 32.59375 26.890625 
C 32.59375 28 32.203125 28.890625 30.90625 28.890625 
C 30.203125 28.890625 29.40625 28.5 28.90625 27.6875 
C 27.5 25.5 26.203125 17.59375 26.296875 15.5 
C 24.40625 11.796875 19 5.59375 12.59375 5.59375 
C 5.90625 5.59375 4.09375 11.5 4.09375 17.1875 
C 4.09375 27.59375 10.59375 36.6875 12.40625 39.1875 
C 13.40625 40.6875 14.09375 41.6875 14.09375 41.890625 
C 14.09375 42.59375 13.703125 43.6875 12.796875 43.6875 
C 11.203125 43.6875 10.703125 42.390625 9.90625 41.1875 
C 4.796875 33.296875 1.203125 22.1875 1.203125 12.59375 
C 1.203125 6.390625 3.5 -1 11 -1 
C 19.296875 -1 24.5 6.09375 26.59375 9.890625 
C 27.40625 4.296875 30.40625 -1 37.703125 -1 
C 45.296875 -1 50.09375 5.6875 53.703125 13.796875 
C 56.296875 19.59375 59.40625 32.09375 59.40625 37.59375 
z
" id="CMMI12-33"/>
     <path d="M 26.296875 24.9375 
C 26.296875 32.140625 25.59375 44.359375 19.59375 57.265625 
C 14.796875 67.6875 6.59375 75 5.40625 75 
C 5.09375 75 4.703125 74.890625 4.703125 74.390625 
C 4.703125 74.1875 4.796875 74.09375 4.90625 73.890625 
C 9.703125 68.875 21.90625 56.171875 21.90625 25.046875 
C 21.90625 -6.1875 9.796875 -18.90625 4.90625 -23.90625 
C 4.796875 -24.109375 4.703125 -24.203125 4.703125 -24.40625 
C 4.703125 -24.90625 5.09375 -25 5.40625 -25 
C 6.5 -25 15 -17.609375 19.90625 -6.59375 
C 24.90625 4.515625 26.296875 15.328125 26.296875 24.9375 
z
" id="CMR17-41"/>
     <path d="M 26.09375 26.234375 
C 26 26.4375 25.5 27.03125 25.5 27.328125 
C 25.5 27.53125 32.59375 33.984375 33.5 34.78125 
C 39.203125 39.5625 42.796875 40.046875 45.40625 40.15625 
L 45.40625 42.734375 
C 44.796875 42.734375 44.59375 42.734375 44.5 42.640625 
L 39.59375 42.53125 
C 36.796875 42.53125 32.5 42.53125 29.796875 42.734375 
L 29.796875 40.15625 
C 31.203125 40.046875 32.203125 39.265625 32.203125 37.859375 
C 32.203125 35.875 30.203125 33.984375 30.09375 33.984375 
L 15 20.28125 
L 15 69 
L 3.09375 67.890625 
L 3.09375 65.296875 
C 9 65.296875 9.90625 64.703125 9.90625 59.921875 
L 9.90625 6.859375 
C 9.90625 3.09375 9.5 2.59375 3.09375 2.59375 
L 3.09375 0 
C 5.5 0.1875 9.90625 0.1875 12.40625 0.1875 
C 14.90625 0.1875 19.296875 0.1875 21.703125 0 
L 21.703125 2.59375 
C 15.296875 2.59375 14.90625 2.984375 14.90625 6.859375 
L 14.90625 17.796875 
L 21.796875 24.0625 
L 31.90625 9.15625 
C 33.09375 7.359375 34.09375 5.96875 34.09375 4.671875 
C 34.09375 2.890625 32.296875 2.59375 31.09375 2.59375 
L 31.09375 0 
C 33.5 0.1875 37.796875 0.1875 40.296875 0.1875 
C 42.09375 0.1875 45.796875 0.09375 47.5 0 
L 47.5 2.59375 
C 42.796875 2.59375 41.703125 3.484375 38.703125 7.859375 
z
" id="CMR17-107"/>
     <path d="M 17.703125 61.890625 
C 17.703125 64.390625 15.703125 65.890625 13.796875 65.890625 
C 11.203125 65.890625 9.796875 63.6875 9.796875 62 
C 9.796875 60 11.40625 58 13.796875 58 
C 15.90625 58 17.703125 59.6875 17.703125 61.890625 
z
M 36 61.890625 
C 36 63.890625 34.40625 65.890625 32 65.890625 
C 29.90625 65.890625 28.09375 64.1875 28.09375 62 
C 28.09375 59.5 30.09375 58 32 58 
C 34.59375 58 36 60.1875 36 61.890625 
z
" id="CMR17-127"/>
     <path d="M 29.40625 42.890625 
L 29.40625 40.296875 
C 35.296875 40.296875 36.203125 39.6875 36.203125 34.828125 
L 36.203125 16.453125 
C 36.203125 7.96875 31.703125 0.59375 24.296875 0.59375 
C 16.09375 0.59375 15.40625 5.546875 15.40625 10.796875 
L 15.40625 44 
L 3.296875 42.890625 
L 3.296875 40.296875 
C 7.296875 40.296875 10 40.296875 10.09375 36.25 
L 10.09375 16.859375 
C 10.09375 10.09375 10.09375 5.75 12.703125 2.921875 
C 14 1.609375 16.5 -1 23.703125 -1 
C 32.203125 -1 35.5 6.25 36.296875 8.375 
L 36.40625 8.375 
L 36.40625 -1 
L 48.296875 -0.203125 
L 48.296875 2.40625 
C 42.40625 2.40625 41.5 3.015625 41.5 7.859375 
L 41.5 44 
z
" id="CMR17-117"/>
     <path d="M 67.59375 30.53125 
C 67.59375 35.5625 66.703125 44 54.796875 44 
C 48 44 43.296875 39.375 41.5 33.953125 
L 41.40625 33.953125 
C 40.203125 42.1875 34.296875 44 28.703125 44 
C 20.796875 44 16.703125 37.875 15.203125 33.84375 
L 15.09375 33.84375 
L 15.09375 44 
L 3.296875 42.890625 
L 3.296875 40.28125 
C 9.203125 40.28125 10.09375 39.6875 10.09375 34.859375 
L 10.09375 6.921875 
C 10.09375 3.09375 9.703125 2.59375 3.296875 2.59375 
L 3.296875 0 
C 5.703125 0.1875 10.09375 0.1875 12.703125 0.1875 
C 15.296875 0.1875 19.796875 0.1875 22.203125 0 
L 22.203125 2.59375 
C 15.796875 2.59375 15.40625 3 15.40625 6.921875 
L 15.40625 26.21875 
C 15.40625 35.453125 21 42.390625 28 42.390625 
C 35.40625 42.390625 36.203125 35.765625 36.203125 30.9375 
L 36.203125 6.921875 
C 36.203125 3.09375 35.796875 2.59375 29.40625 2.59375 
L 29.40625 0 
C 31.796875 0.1875 36.203125 0.1875 38.796875 0.1875 
C 41.40625 0.1875 45.90625 0.1875 48.296875 0 
L 48.296875 2.59375 
C 41.90625 2.59375 41.5 3 41.5 6.921875 
L 41.5 26.21875 
C 41.5 35.453125 47.09375 42.390625 54.09375 42.390625 
C 61.5 42.390625 62.296875 35.765625 62.296875 30.9375 
L 62.296875 6.921875 
C 62.296875 3.09375 61.90625 2.59375 55.5 2.59375 
L 55.5 0 
C 57.90625 0.1875 62.296875 0.1875 64.90625 0.1875 
C 67.5 0.1875 72 0.1875 74.40625 0 
L 74.40625 2.59375 
C 68 2.59375 67.59375 3 67.59375 6.921875 
z
" id="CMR17-109"/>
    </defs>
    <g transform="translate(131.628614 28.56)scale(0.24 -0.24)">
     <use transform="translate(0 27.44057)scale(0.996264)" xlink:href="#CMR17-116"/>
     <use transform="translate(35.280768 27.44057)scale(0.996264)" xlink:href="#CMR17-97"/>
     <use transform="translate(78.368791 27.44057)scale(0.996264)" xlink:href="#CMR17-118"/>
     <use transform="translate(121.45689 27.44057)scale(0.996264)" xlink:href="#CMR17-97"/>
     <use transform="translate(167.147367 27.44057)scale(0.996264)" xlink:href="#CMR17-108"/>
     <use transform="translate(192.018426 27.44057)scale(0.996264)" xlink:href="#CMR17-105"/>
     <use transform="translate(216.889484 27.44057)scale(0.996264)" xlink:href="#CMR17-110"/>
     <use transform="translate(267.784854 27.44057)scale(0.996264)" xlink:href="#CMR17-101"/>
     <use transform="translate(338.346481 27.44057)scale(0.996264)" xlink:href="#CMMI12-31"/>
     <use transform="translate(399.45944 63.594209)scale(0.697382)" xlink:href="#CMSY10-48"/>
     <use transform="translate(418.6374 63.594209)scale(0.697382)" xlink:href="#CMSY10-48"/>
     <use transform="translate(399.45944 0)scale(0.697382)" xlink:href="#CMMI12-65"/>
     <use transform="translate(450.648736 0)scale(0.697382)" xlink:href="#CMMI12-66"/>
     <use transform="translate(506.541494 27.44057)scale(0.996264)" xlink:href="#CMR17-40"/>
     <use transform="translate(541.822262 27.44057)scale(0.996264)" xlink:href="#CMMI12-33"/>
     <use transform="translate(606.140608 27.44057)scale(0.996264)" xlink:href="#CMR17-41"/>
     <use transform="translate(671.497342 27.44057)scale(0.996264)" xlink:href="#CMR17-107"/>
     <use transform="translate(719.790258 27.44057)scale(0.996264)" xlink:href="#CMR17-127"/>
     <use transform="translate(719.790258 27.44057)scale(0.996264)" xlink:href="#CMR17-97"/>
     <use transform="translate(765.480735 27.44057)scale(0.996264)" xlink:href="#CMR17-105"/>
     <use transform="translate(790.351794 27.44057)scale(0.996264)" xlink:href="#CMR17-116"/>
     <use transform="translate(825.632561 27.44057)scale(0.996264)" xlink:href="#CMR17-117"/>
     <use transform="translate(876.527931 27.44057)scale(0.996264)" xlink:href="#CMR17-109"/>
     <use transform="translate(953.447521 27.44057)scale(0.996264)" xlink:href="#CMR17-105"/>
     <use transform="translate(978.318579 27.44057)scale(0.996264)" xlink:href="#CMR17-110"/>
     <use transform="translate(1029.213949 27.44057)scale(0.996264)" xlink:href="#CMR17-101"/>
    </g>
   </g>
  </g>
  <g id="axes_2">
   <g id="line2d_4">
    <path clip-path="url(#pdf4a7ceaf2)" d="M 487.071074 140.284959 
L 489.865965 140.223205 
L 492.660856 140.158852 
L 495.455748 140.09173 
L 498.250639 140.021658 
L 501.04553 139.948437 
L 503.840421 139.87185 
L 506.635312 139.791658 
L 509.430203 139.707601 
L 512.225094 139.619394 
L 515.019985 139.52672 
L 517.814876 139.429233 
L 520.609767 139.326545 
L 523.404658 139.218232 
L 526.199549 139.103816 
L 528.99444 138.982767 
L 531.789331 138.854491 
L 534.584222 138.718322 
L 537.379113 138.573506 
L 540.174005 138.419195 
L 542.968896 138.254422 
L 545.763787 138.078086 
L 548.558678 137.888926 
L 551.353569 137.685489 
L 554.14846 137.466096 
L 556.943351 137.228794 
L 559.738242 136.971296 
L 562.533133 136.690909 
L 565.328024 136.38444 
L 568.122915 136.048071 
L 570.917806 135.677203 
L 573.712697 135.266241 
L 576.507588 134.808312 
L 579.302479 134.294876 
L 582.09737 133.715191 
L 584.892261 133.055549 
L 587.687153 132.298182 
L 590.482044 131.419636 
L 593.276935 130.3883 
L 596.071826 129.160519 
L 598.866717 127.674258 
L 601.661608 125.838289 
L 604.456499 123.512727 
L 607.25139 120.471608 
L 610.046281 116.324628 
L 612.841172 110.334545 
L 615.636063 100.921558 
L 618.430954 83.978182 
L 621.225845 44.443636 
" style="fill:none;stroke:#0000ff;stroke-linecap:square;stroke-width:3;"/>
   </g>
   <g id="line2d_5">
    <path clip-path="url(#pdf4a7ceaf2)" d="M 629.610518 242.116364 
L 632.405409 202.581818 
L 635.200301 185.638442 
L 637.995192 176.225455 
L 640.790083 170.235372 
L 643.584974 166.088392 
L 646.379865 163.047273 
L 649.174756 160.721711 
L 651.969647 158.885742 
L 654.764538 157.399481 
L 657.559429 156.1717 
L 660.35432 155.140364 
L 663.149211 154.261818 
L 665.944102 153.504451 
L 668.738993 152.844809 
L 671.533884 152.265124 
L 674.328775 151.751688 
L 677.123666 151.293759 
L 679.918557 150.882797 
L 682.713449 150.511929 
L 685.50834 150.17556 
L 688.303231 149.869091 
L 691.098122 149.588704 
L 693.893013 149.331206 
L 696.687904 149.093904 
L 699.482795 148.874511 
L 702.277686 148.671074 
L 705.072577 148.481914 
L 707.867468 148.305578 
L 710.662359 148.140805 
L 713.45725 147.986494 
L 716.252141 147.841678 
L 719.047032 147.705509 
L 721.841923 147.577233 
L 724.636814 147.456184 
L 727.431705 147.341768 
L 730.226597 147.233455 
L 733.021488 147.130767 
L 735.816379 147.03328 
L 738.61127 146.940606 
L 741.406161 146.852399 
L 744.201052 146.768342 
L 746.995943 146.68815 
L 749.790834 146.611563 
L 752.585725 146.538342 
L 755.380616 146.46827 
L 758.175507 146.401148 
L 760.970398 146.336795 
L 763.765289 146.275041 
" style="fill:none;stroke:#0000ff;stroke-linecap:square;stroke-width:3;"/>
   </g>
   <g id="line2d_6">
    <path clip-path="url(#pdf4a7ceaf2)" d="M 473.236364 143.28 
L 777.6 143.28 
" style="fill:none;stroke:#000000;stroke-dasharray:5.55,2.4;stroke-dashoffset:0;stroke-width:1.5;"/>
   </g>
   <g id="line2d_7">
    <path clip-path="url(#pdf4a7ceaf2)" d="M 625.418182 252 
L 625.418182 34.56 
" style="fill:none;stroke:#000000;stroke-dasharray:5.55,2.4;stroke-dashoffset:0;stroke-width:1.5;"/>
   </g>
   <g id="text_2">
    <!-- lisaks lubatud $\chi_{AB}^{\prime\prime}(\omega)$ k\"aitumine -->
    <defs>
     <path d="M 30.90625 42 
C 30.90625 43.796875 30.796875 43.890625 30.203125 43.890625 
C 29.796875 43.890625 29.703125 43.796875 28.5 42.296875 
C 28.203125 41.890625 27.296875 40.890625 27 40.5 
C 23.796875 43.890625 19.296875 44 17.59375 44 
C 6.5 44 2.5 38.1875 2.5 32.390625 
C 2.5 23.390625 12.703125 21.296875 15.59375 20.6875 
C 21.90625 19.390625 24.09375 19 26.203125 17.1875 
C 27.5 16 29.703125 13.796875 29.703125 10.1875 
C 29.703125 6 27.296875 0.59375 18.09375 0.59375 
C 9.40625 0.59375 6.296875 7.1875 4.5 16 
C 4.203125 17.390625 4.203125 17.5 3.40625 17.5 
C 2.59375 17.5 2.5 17.390625 2.5 15.390625 
L 2.5 1 
C 2.5 -0.8125 2.59375 -0.90625 3.203125 -0.90625 
C 3.703125 -0.90625 3.796875 -0.8125 4.296875 0 
C 4.90625 0.890625 6.40625 3.296875 7 4.296875 
C 9 1.59375 12.5 -1 18.09375 -1 
C 28 -1 33.296875 4.390625 33.296875 12.1875 
C 33.296875 17.296875 30.59375 20 29.296875 21.1875 
C 26.296875 24.296875 22.796875 25 18.59375 25.796875 
C 13.09375 27 6.09375 28.390625 6.09375 34.5 
C 6.09375 37.09375 7.5 42.59375 17.59375 42.59375 
C 28.296875 42.59375 28.90625 32.59375 29.09375 29.390625 
C 29.203125 28.890625 29.703125 28.796875 30 28.796875 
C 30.90625 28.796875 30.90625 29.09375 30.90625 30.796875 
z
" id="CMR17-115"/>
     <path d="M 15 69 
L 3.09375 67.890625 
L 3.09375 65.296875 
C 9 65.296875 9.90625 64.703125 9.90625 60.046875 
L 9.90625 -0.203125 
L 11.703125 -0.203125 
L 14.59375 6.953125 
C 17.5 2.203125 21.796875 -1 27.59375 -1 
C 37.59375 -1 47.703125 7.859375 47.703125 21.59375 
C 47.703125 34.515625 38.703125 44 28.59375 44 
C 22.40625 44 18 40.671875 15 36.734375 
z
M 15.203125 31.59375 
C 15.203125 33.40625 15.203125 33.703125 16.59375 35.828125 
C 20.5 41.890625 26.09375 42.390625 28 42.390625 
C 31 42.390625 41.296875 40.78125 41.296875 21.6875 
C 41.296875 1.703125 29.5 0.59375 27.09375 0.59375 
C 24 0.59375 19.5 1.796875 16.296875 7.65625 
C 15.203125 9.578125 15.203125 9.78125 15.203125 11.59375 
z
" id="CMR17-98"/>
     <path d="M 29.203125 67.890625 
L 29.203125 65.296875 
C 35.09375 65.296875 36 64.703125 36 60.046875 
L 36 37.046875 
C 35.59375 37.546875 31.5 44 23.40625 44 
C 13.203125 44 3.296875 34.8125 3.296875 21.5 
C 3.296875 8.265625 12.59375 -1 22.40625 -1 
C 30.90625 -1 35.296875 5.640625 35.796875 6.34375 
L 35.796875 -1 
L 47.90625 -0.203125 
L 47.90625 2.40625 
C 42 2.40625 41.09375 3.015625 41.09375 7.859375 
L 41.09375 69 
z
M 35.796875 11.90625 
C 35.796875 8.875 34 6.140625 31.703125 4.125 
C 28.296875 1.09375 24.90625 0.59375 23 0.59375 
C 20.09375 0.59375 9.703125 2.109375 9.703125 21.390625 
C 9.703125 41.1875 21.296875 42.390625 23.90625 42.390625 
C 28.5 42.390625 32.203125 39.765625 34.5 36.140625 
C 35.796875 34.015625 35.796875 33.703125 35.796875 31.890625 
z
" id="CMR17-100"/>
    </defs>
    <g transform="translate(467.278076 28.56)scale(0.24 -0.24)">
     <use transform="translate(0 27.44057)scale(0.996264)" xlink:href="#CMR17-108"/>
     <use transform="translate(24.871058 27.44057)scale(0.996264)" xlink:href="#CMR17-105"/>
     <use transform="translate(49.742117 27.44057)scale(0.996264)" xlink:href="#CMR17-115"/>
     <use transform="translate(85.543455 27.44057)scale(0.996264)" xlink:href="#CMR17-97"/>
     <use transform="translate(131.233932 27.44057)scale(0.996264)" xlink:href="#CMR17-107"/>
     <use transform="translate(179.526848 27.44057)scale(0.996264)" xlink:href="#CMR17-115"/>
     <use transform="translate(245.404152 27.44057)scale(0.996264)" xlink:href="#CMR17-108"/>
     <use transform="translate(270.27521 27.44057)scale(0.996264)" xlink:href="#CMR17-117"/>
     <use transform="translate(321.17058 27.44057)scale(0.996264)" xlink:href="#CMR17-98"/>
     <use transform="translate(372.06595 27.44057)scale(0.996264)" xlink:href="#CMR17-97"/>
     <use transform="translate(417.756427 27.44057)scale(0.996264)" xlink:href="#CMR17-116"/>
     <use transform="translate(453.037195 27.44057)scale(0.996264)" xlink:href="#CMR17-117"/>
     <use transform="translate(503.932564 27.44057)scale(0.996264)" xlink:href="#CMR17-100"/>
     <use transform="translate(584.9039 27.44057)scale(0.996264)" xlink:href="#CMMI12-31"/>
     <use transform="translate(646.016859 63.594209)scale(0.697382)" xlink:href="#CMSY10-48"/>
     <use transform="translate(665.19482 63.594209)scale(0.697382)" xlink:href="#CMSY10-48"/>
     <use transform="translate(646.016859 0)scale(0.697382)" xlink:href="#CMMI12-65"/>
     <use transform="translate(697.206156 0)scale(0.697382)" xlink:href="#CMMI12-66"/>
     <use transform="translate(753.098914 27.44057)scale(0.996264)" xlink:href="#CMR17-40"/>
     <use transform="translate(788.379682 27.44057)scale(0.996264)" xlink:href="#CMMI12-33"/>
     <use transform="translate(852.698028 27.44057)scale(0.996264)" xlink:href="#CMR17-41"/>
     <use transform="translate(918.054762 27.44057)scale(0.996264)" xlink:href="#CMR17-107"/>
     <use transform="translate(966.347678 27.44057)scale(0.996264)" xlink:href="#CMR17-127"/>
     <use transform="translate(966.347678 27.44057)scale(0.996264)" xlink:href="#CMR17-97"/>
     <use transform="translate(1012.038155 27.44057)scale(0.996264)" xlink:href="#CMR17-105"/>
     <use transform="translate(1036.909213 27.44057)scale(0.996264)" xlink:href="#CMR17-116"/>
     <use transform="translate(1072.189981 27.44057)scale(0.996264)" xlink:href="#CMR17-117"/>
     <use transform="translate(1123.085351 27.44057)scale(0.996264)" xlink:href="#CMR17-109"/>
     <use transform="translate(1200.004941 27.44057)scale(0.996264)" xlink:href="#CMR17-105"/>
     <use transform="translate(1224.875999 27.44057)scale(0.996264)" xlink:href="#CMR17-110"/>
     <use transform="translate(1275.771369 27.44057)scale(0.996264)" xlink:href="#CMR17-101"/>
    </g>
   </g>
  </g>
 </g>
 <defs>
  <clipPath id="pa7e4d7df44">
   <rect height="217.44" width="304.363636" x="108" y="34.56"/>
  </clipPath>
  <clipPath id="pdf4a7ceaf2">
   <rect height="217.44" width="304.363636" x="473.236364" y="34.56"/>
  </clipPath>
 </defs>
</svg>
